<svg width="239" height="17" viewBox="0 0 239 17" fill="none" xmlns="http://www.w3.org/2000/svg">
<path d="M78.685 8.29341C77.7696 7.50365 76.4916 7.06928 74.8511 6.91851L71.0064 6.61338C70.1951 6.55235 69.5669 6.37645 69.1289 6.08567C68.6909 5.7949 68.4755 5.42156 68.4755 4.96565C68.4755 4.38769 68.8094 3.91743 69.4699 3.55485C70.134 3.19587 71.0207 3.01638 72.13 3.01638C73.1459 3.01638 74.1044 3.17792 75.0018 3.50819C75.8993 3.83845 76.6998 4.3159 77.4034 4.94411L79.3742 2.61432C78.4229 1.79944 77.3388 1.18558 76.129 0.769159C74.9157 0.35633 73.6233 0.144531 72.2484 0.144531C70.8735 0.144531 69.6315 0.35274 68.5797 0.769159C67.5242 1.18558 66.7094 1.77431 66.1278 2.53535C65.5499 3.29639 65.2591 4.16871 65.2591 5.1595C65.2591 6.38004 65.7114 7.3816 66.6196 8.157C67.5278 8.93239 68.7915 9.38471 70.4212 9.51035L74.2659 9.81549C75.0952 9.88011 75.7342 10.074 76.1757 10.3899C76.6208 10.7129 76.8434 11.1258 76.8434 11.6248C76.8434 12.314 76.4808 12.8704 75.7521 13.2832C75.0234 13.6961 74.0039 13.9043 72.6936 13.9043C71.491 13.9043 70.353 13.7033 69.2833 13.294C68.2135 12.8884 67.3017 12.2889 66.5514 11.5063L64.5339 13.8361C65.5499 14.8089 66.7489 15.5484 68.1345 16.0474C69.5202 16.5464 70.9848 16.8013 72.532 16.8013C74.0792 16.8013 75.3967 16.5715 76.5275 16.1156C77.6619 15.6633 78.5342 15.0279 79.1445 14.2094C79.7547 13.3945 80.0563 12.454 80.0563 11.3878C80.0563 10.1206 79.6004 9.08676 78.685 8.297" fill="#003685"/>
<path d="M60.0537 0.470703H56.866V16.4633H60.0537V0.470703Z" fill="#003685"/>
<path d="M21.194 11.3366L24.1951 5.83345L27.1962 11.3366H21.194ZM24.1736 0L14.9836 16.4629H18.4083L19.7222 14.0649H28.6788L29.9891 16.4629H33.5071L24.3172 0H24.1736Z" fill="#003685"/>
<path d="M11.5802 7.66828C11.3146 7.96623 10.9772 8.1888 10.5607 8.33957C10.1443 8.49035 9.59508 8.56214 8.90584 8.56214H3.18727V3.33896H8.90584C9.59508 3.33896 10.1443 3.41435 10.5607 3.56512C10.9772 3.7123 11.3146 3.93846 11.5802 4.23283C11.9715 4.70668 12.1654 5.27387 12.1654 5.95235C12.1654 6.63082 11.9679 7.19801 11.5802 7.66828ZM13.8813 2.13997C12.8008 1.02712 11.1925 0.470703 9.04943 0.470703H-0.000488281V16.4633H3.18727V11.4089H9.04943C11.1746 11.4089 12.7864 10.8596 13.8813 9.76114C14.8829 8.75599 15.3819 7.48879 15.3819 5.95235C15.3819 4.41591 14.8829 3.14511 13.8813 2.13997Z" fill="#003685"/>
<path d="M39.5303 8.09251V3.3396H45.3242C46.3545 3.3396 47.0976 3.59088 47.5499 4.09346C47.9556 4.5027 48.1602 5.04476 48.1602 5.71605C48.1602 6.38735 47.9556 6.933 47.5499 7.33865C47.0509 7.84122 46.3043 8.09251 45.3242 8.09251H39.5303ZM49.9874 13.2798C49.4238 13.1003 48.9428 12.8777 48.5479 12.6229C48.1458 12.3608 47.672 12.0162 47.1299 11.5746C46.6273 11.169 46.254 10.8854 46.0027 10.731C47.112 10.6987 48.074 10.4618 48.8889 10.0131C49.7002 9.56792 50.3177 8.96483 50.7413 8.21456C51.1613 7.4607 51.3767 6.62069 51.3767 5.6981C51.3767 4.94783 51.2438 4.25141 50.9782 3.6196C50.7126 2.98062 50.3284 2.43137 49.8259 1.96111C48.7956 0.97391 47.3417 0.478516 45.4642 0.478516H36.3425V16.4711H39.5339V10.9213H40.6359C41.2606 10.9213 41.8349 11.0936 42.3626 11.4382C42.8832 11.7828 43.5293 12.3177 44.294 13.0357C45.0945 13.7752 45.7909 14.3639 46.394 14.8126C46.9971 15.2578 47.7474 15.6455 48.6448 15.9793C49.5423 16.306 50.569 16.4711 51.7285 16.4711H52.2669V13.5562H51.9618C51.2115 13.5562 50.5546 13.4665 49.991 13.287" fill="#003685"/>
<path d="M227.292 13.5951V9.78627H235.685V6.91442H227.292V3.33896H238.123V0.470703H224.101V16.4633H238.719V13.5951H227.292Z" fill="#003685"/>
<path d="M206.217 3.33928H212.125V16.4672H215.313V3.33928H221.222V0.474609H206.217V3.33928Z" fill="#003685"/>
<path d="M188.684 3.33928H194.592V16.4672H197.78V3.33928H203.689V0.474609H188.684V3.33928Z" fill="#003685"/>
<path d="M163.767 9.40934C163.767 10.2888 163.57 11.0642 163.178 11.7391C162.787 12.4104 162.241 12.9381 161.534 13.3151C160.831 13.692 160.026 13.8787 159.122 13.8787C158.217 13.8787 157.409 13.692 156.706 13.3151C156.002 12.9381 155.453 12.414 155.065 11.7391C154.674 11.0642 154.477 10.2853 154.477 9.40934V0.470703H151.289V9.40934C151.289 10.8524 151.619 12.134 152.272 13.254C152.929 14.3776 153.852 15.25 155.04 15.8638C156.228 16.4849 157.589 16.7936 159.122 16.7936C160.655 16.7936 162.012 16.4849 163.2 15.8638C164.388 15.25 165.311 14.3776 165.968 13.254C166.621 12.1376 166.951 10.8524 166.951 9.40934V0.470703H163.763V9.40934H163.767Z" fill="#003685"/>
<path d="M104.273 12.8412C103.914 13.3725 103.271 13.6417 102.349 13.6417H95.4563V9.68934H102.349C103.239 9.68934 103.874 9.94063 104.251 10.4432C104.499 10.7914 104.625 11.1899 104.625 11.6458C104.625 12.1304 104.506 12.5289 104.273 12.8412ZM95.4563 3.2923H101.717C102.499 3.2923 103.052 3.5041 103.383 3.92769C103.648 4.2436 103.777 4.62771 103.777 5.08002C103.777 5.53234 103.645 5.92004 103.383 6.23235C103.006 6.65595 102.449 6.86775 101.717 6.86775H95.4563V3.2923ZM105.185 7.90162C106.341 7.16571 106.922 6.10671 106.922 4.72822C106.922 3.69077 106.578 2.78254 105.892 1.99996C104.951 0.980457 103.616 0.470703 101.882 0.470703H92.29V16.4633H102.395C104.427 16.4633 105.928 15.8459 106.897 14.6074C107.522 13.8069 107.834 12.8376 107.834 11.6925C107.834 10.813 107.604 10.0483 107.145 9.39857C106.682 8.74881 106.032 8.24983 105.185 7.90521" fill="#003685"/>
<path d="M115.828 11.3366L118.83 5.83345L121.831 11.3366H115.828ZM118.808 0L109.615 16.4629H113.039L114.349 14.0649H123.31L124.62 16.4629H128.138L118.944 0H118.808Z" fill="#003685"/>
<path d="M174.799 9.78627H183.192V6.91801H174.799V3.33896H185.629V0.470703H171.607V16.4669H186.225V13.5951H174.799V9.78627Z" fill="#003685"/>
<path d="M138.462 10.1379H143.926C143.757 11.1646 143.057 12.2918 142.063 12.9631C141.072 13.638 139.791 13.8785 138.462 13.8785C137.367 13.8785 136.387 13.6488 135.519 13.1965C134.65 12.7406 133.971 12.1016 133.48 11.2795C132.991 10.4574 132.744 9.52049 132.744 8.46868C132.744 7.41686 132.991 6.47992 133.48 5.65785C133.971 4.83219 134.65 4.1968 135.519 3.74089C136.387 3.28499 137.367 3.05524 138.462 3.05524C139.478 3.05524 140.447 3.24909 141.37 3.6332C142.293 4.01731 143.075 4.56296 143.714 5.26656L145.965 3.1737C145.075 2.23317 143.962 1.49367 142.637 0.948017C141.305 0.409545 139.916 0.136719 138.462 0.136719C136.771 0.136719 135.249 0.49929 133.892 1.23161C132.532 1.96034 131.459 2.95472 130.68 4.21475C129.897 5.47836 129.509 6.89275 129.509 8.4615C129.509 10.0302 129.901 11.4446 130.68 12.7082C131.462 13.9683 132.532 14.9626 133.892 15.6914C135.253 16.4165 136.775 16.7863 138.462 16.7863C140.397 16.7863 141.729 16.4955 143.097 15.8242C144.385 15.1924 145.254 14.399 146.223 12.9308C147.028 11.7103 147.326 10.181 147.326 8.64817V7.30558H138.462V10.1272V10.1379Z" fill="#003685"/>
</svg>
