<svg width="271" height="20" viewBox="0 0 271 20" fill="none" xmlns="http://www.w3.org/2000/svg">
<path d="M89.3284 9.41424C88.2892 8.51766 86.8383 8.02453 84.9759 7.85337L80.6111 7.50696C79.6901 7.43767 78.9769 7.23798 78.4797 6.90787C77.9825 6.57777 77.738 6.15392 77.738 5.63635C77.738 4.98021 78.117 4.44633 78.8669 4.03472C79.6208 3.62718 80.6274 3.42341 81.8867 3.42341C83.0401 3.42341 84.1282 3.6068 85.147 3.98174C86.1659 4.35667 87.0747 4.8987 87.8735 5.6119L90.1109 2.96696C89.0309 2.04185 87.8001 1.34495 86.4267 0.872206C85.0492 0.403535 83.5821 0.163086 82.0212 0.163086C80.4603 0.163086 79.0502 0.399459 77.8562 0.872206C76.658 1.34495 75.7329 2.01332 75.0727 2.8773C74.4165 3.74129 74.0864 4.73161 74.0864 5.85642C74.0864 7.24206 74.5999 8.37909 75.631 9.25938C76.6621 10.1397 78.0966 10.6532 79.9468 10.7958L84.3116 11.1422C85.253 11.2156 85.9784 11.4356 86.4797 11.7943C86.9851 12.1611 87.2377 12.6297 87.2377 13.1962C87.2377 13.9787 86.8261 14.6104 85.9988 15.079C85.1715 15.5477 84.0141 15.7841 82.5266 15.7841C81.1613 15.7841 79.8694 15.5559 78.6549 15.0913C77.4405 14.6308 76.4053 13.9502 75.5536 13.0617L73.2632 15.7067C74.4165 16.8111 75.7777 17.6506 77.3508 18.2171C78.9239 18.7836 80.5867 19.0729 82.3432 19.0729C84.0997 19.0729 85.5953 18.8121 86.8791 18.2945C88.1669 17.781 89.1572 17.0597 89.8501 16.1305C90.5429 15.2054 90.8852 14.1376 90.8852 12.9272C90.8852 11.4886 90.3676 10.3149 89.3284 9.41832" fill="#003685"/>
<path d="M68.1771 0.53418H64.5581V18.6901H68.1771V0.53418Z" fill="#003685"/>
<path d="M24.0612 12.8701L27.4682 6.62252L30.8753 12.8701H24.0612ZM27.4438 0L17.0107 18.6898H20.8987L22.3903 15.9674H32.5584L34.0459 18.6898H38.0398L27.6068 0H27.4438Z" fill="#003685"/>
<path d="M13.1472 8.70536C12.8457 9.04362 12.4626 9.29629 11.9898 9.46746C11.5171 9.63862 10.8935 9.72013 10.1111 9.72013H3.61895V3.79042H10.1111C10.8935 3.79042 11.5171 3.87601 11.9898 4.04717C12.4626 4.21427 12.8457 4.47102 13.1472 4.8052C13.5915 5.34315 13.8115 5.98706 13.8115 6.75732C13.8115 7.52757 13.5874 8.17148 13.1472 8.70536ZM15.7596 2.42924C14.5329 1.16587 12.7071 0.53418 10.2741 0.53418H0V18.6901H3.61895V12.9519H10.2741C12.6867 12.9519 14.5166 12.3284 15.7596 11.0813C16.8966 9.9402 17.4631 8.50159 17.4631 6.75732C17.4631 5.01304 16.8966 3.57035 15.7596 2.42924Z" fill="#003685"/>
<path d="M44.8782 9.18592V3.79009H51.4559C52.6256 3.79009 53.4692 4.07536 53.9827 4.64592C54.4432 5.11052 54.6755 5.7259 54.6755 6.488C54.6755 7.2501 54.4432 7.86956 53.9827 8.33008C53.4162 8.90064 52.5685 9.18592 51.4559 9.18592H44.8782ZM56.7499 15.0749C56.11 14.8711 55.5639 14.6184 55.1156 14.3291C54.6592 14.0316 54.1212 13.6403 53.5059 13.1391C52.9353 12.6785 52.5115 12.3566 52.2262 12.1813C53.4855 12.1447 54.5777 11.8757 55.5028 11.3663C56.4238 10.8609 57.1248 10.1762 57.6057 9.32448C58.0825 8.46864 58.3271 7.515 58.3271 6.46762C58.3271 5.61587 58.1763 4.82524 57.8747 4.10797C57.5731 3.38255 57.137 2.75901 56.5665 2.22513C55.3968 1.1044 53.7463 0.541992 51.6149 0.541992H41.2593V18.6979H44.8823V12.3973H46.1335C46.8426 12.3973 47.4946 12.5929 48.0937 12.9842C48.6847 13.3754 49.4182 13.9827 50.2863 14.7977C51.1951 15.6373 51.9857 16.3056 52.6704 16.8151C53.3551 17.3204 54.2068 17.7606 55.2257 18.1396C56.2445 18.5104 57.4101 18.6979 58.7264 18.6979H59.3378V15.3887H58.9913C58.1396 15.3887 57.3938 15.2868 56.7539 15.083" fill="#003685"/>
<path d="M258.038 15.4338V11.1098H267.566V7.84952H258.038V3.79042H270.333V0.53418H254.415V18.6901H271.01V15.4338H258.038Z" fill="#003685"/>
<path d="M234.111 3.79026H240.819V18.694H244.438V3.79026H251.146V0.538086H234.111V3.79026Z" fill="#003685"/>
<path d="M214.207 3.79026H220.915V18.694H224.534V3.79026H231.242V0.538086H214.207V3.79026Z" fill="#003685"/>
<path d="M185.92 10.6819C185.92 11.6804 185.695 12.5607 185.251 13.3269C184.807 14.089 184.187 14.688 183.385 15.116C182.586 15.5439 181.673 15.7558 180.646 15.7558C179.619 15.7558 178.702 15.5439 177.903 15.116C177.104 14.688 176.481 14.093 176.041 13.3269C175.597 12.5607 175.372 11.6763 175.372 10.6819V0.53418H171.753V10.6819C171.753 12.3202 172.128 13.7752 172.87 15.0467C173.616 16.3223 174.663 17.3126 176.012 18.0095C177.361 18.7145 178.906 19.065 180.646 19.065C182.386 19.065 183.927 18.7145 185.276 18.0095C186.625 17.3126 187.672 16.3223 188.418 15.0467C189.159 13.7792 189.534 12.3202 189.534 10.6819V0.53418H185.915V10.6819H185.92Z" fill="#003685"/>
<path d="M118.378 14.578C117.97 15.1812 117.241 15.4868 116.193 15.4868H108.368V10.9998H116.193C117.204 10.9998 117.925 11.2851 118.353 11.8556C118.634 12.251 118.777 12.7033 118.777 13.2209C118.777 13.7711 118.643 14.2234 118.378 14.578ZM108.368 3.73744H115.476C116.364 3.73744 116.992 3.97789 117.367 4.45879C117.668 4.81742 117.815 5.25349 117.815 5.76699C117.815 6.28049 117.664 6.72064 117.367 7.0752C116.939 7.55609 116.307 7.79654 115.476 7.79654H108.368V3.73744ZM119.413 8.97026C120.725 8.1348 121.385 6.93256 121.385 5.3676C121.385 4.18981 120.994 3.15874 120.216 2.2703C119.148 1.11289 117.632 0.53418 115.663 0.53418H104.774V18.6901H116.246C118.553 18.6901 120.256 17.9891 121.357 16.5831C122.066 15.6743 122.42 14.5739 122.42 13.2739C122.42 12.2754 122.16 11.4073 121.638 10.6697C121.112 9.93205 120.375 9.36557 119.413 8.97433" fill="#003685"/>
<path d="M131.496 12.8701L134.903 6.62252L138.31 12.8701H131.496ZM134.879 0L124.442 18.6898H128.33L129.817 15.9674H139.99L141.477 18.6898H145.471L135.034 0H134.879Z" fill="#003685"/>
<path d="M198.443 11.1098H207.972V7.8536H198.443V3.79042H210.739V0.53418H194.82V18.6942H211.415V15.4338H198.443V11.1098Z" fill="#003685"/>
<path d="M157.192 11.5093H163.395C163.203 12.6749 162.408 13.9546 161.28 14.7167C160.155 15.4829 158.7 15.7559 157.192 15.7559C155.949 15.7559 154.836 15.4951 153.85 14.9816C152.864 14.464 152.094 13.7386 151.535 12.8053C150.981 11.872 150.7 10.8084 150.7 9.61428C150.7 8.42018 150.981 7.3565 151.535 6.42324C152.094 5.4859 152.864 4.76455 153.85 4.24697C154.836 3.7294 155.949 3.46857 157.192 3.46857C158.345 3.46857 159.446 3.68864 160.493 4.12471C161.54 4.56078 162.429 5.18024 163.154 5.97902L165.709 3.60306C164.699 2.53531 163.435 1.69577 161.932 1.07631C160.42 0.465004 158.842 0.155273 157.192 0.155273C155.272 0.155273 153.544 0.566889 152.004 1.39827C150.459 2.22558 149.241 3.35446 148.356 4.78493C147.468 6.21947 147.028 7.82518 147.028 9.60613C147.028 11.3871 147.472 12.9928 148.356 14.4273C149.245 15.8578 150.459 16.9867 152.004 17.814C153.548 18.6372 155.276 19.057 157.192 19.057C159.389 19.057 160.9 18.7269 162.453 17.9648C163.916 17.2475 164.903 16.3468 166.003 14.68C166.916 13.2944 167.254 11.5582 167.254 9.81805V8.29385H157.192V11.4971V11.5093Z" fill="#003685"/>
</svg>
