<svg width="195" height="31" viewBox="0 0 195 31" fill="none" xmlns="http://www.w3.org/2000/svg">
<g clip-path="url(#clip0_241_42)">
<path d="M24.1913 13.7315C23.9211 13.0341 23.3728 12.505 22.6814 12.2725C22.2681 12.1362 21.4019 11.8396 15.5369 12.6493C9.05991 13.5391 8.83739 13.98 8.36056 14.95C7.8281 16.0323 8.25725 17.347 9.33012 17.8841C9.90232 18.1727 10.546 18.1807 11.1023 17.9562C11.5792 17.7638 11.2931 17.844 11.2692 17.852C12.1911 17.5153 16.5621 16.874 19.3515 16.6014C19.4469 16.5934 19.3356 16.7137 19.2879 16.8499C19.0893 17.4512 18.8826 18.2689 18.676 18.5254C18.5489 18.6857 18.4217 18.8781 18.0561 19.0224C15.815 19.8962 11.754 21.3232 9.74337 21.3953C7.4228 21.4835 5.53137 20.3051 4.56181 18.1727C4.26776 17.5314 4.10087 16.5613 5.07043 14.2125C5.92078 12.1522 9.05991 9.42662 10.403 8.2562C10.6494 8.03975 10.8639 7.85537 11.0308 7.70306C13.3991 5.55462 15.1316 4.61669 16.0375 4.41627C16.3475 4.79305 16.7925 5.6909 17.015 6.44446C17.3488 7.60686 18.5568 8.27223 19.7091 7.92752C20.8615 7.59083 21.5211 6.37231 21.1794 5.20991C20.8138 3.95131 19.3595 -0.169195 16.1011 -0.000847919C13.9395 0.111384 11.2613 1.61048 8.13804 4.44834C8.00294 4.56859 7.80426 4.74495 7.57379 4.93735C5.73799 6.53264 2.3207 9.5148 1.073 12.521C-0.190605 15.5833 -0.333654 17.8921 0.620008 19.9844C2.32865 23.7522 5.80157 25.9167 9.90232 25.7563C12.0481 25.6762 15.2826 24.6661 17.6588 23.8243V28.8026C17.6588 30.0131 18.6283 30.9911 19.8283 30.9911C21.0284 30.9911 21.9979 30.0131 21.9979 28.8026V21.2029C24.9463 15.6795 24.4457 14.3568 24.1993 13.7155L24.1913 13.7315Z" fill="white"/>
<path d="M36.5574 15.945L36.4461 15.8488C37.2567 15.3999 37.964 14.9269 38.3852 14.5502C40.4515 12.6983 40.8012 8.86642 40.674 6.89435C40.4833 3.78393 37.3203 0.609375 34.4117 0.609375C32.7189 0.609375 29.3572 1.4912 28.6976 1.66756C27.3466 2.0283 26.5439 3.4312 26.9016 4.79401C27.1797 5.84418 28.0698 6.55766 29.0791 6.66989C28.9281 7.61584 28.7692 8.38543 28.6579 8.67403C28.3956 9.33138 28.1652 10.4377 27.8632 12.0811C27.7519 12.073 27.6327 12.057 27.5214 12.049C26.1307 11.9287 24.8989 12.9629 24.7797 14.3658C24.6605 15.7126 25.6062 16.891 26.9095 17.0994C26.6393 18.8791 26.6552 22.6789 26.6949 24.9637C26.7188 26.1742 27.7042 27.1361 28.9043 27.1121C30.1043 27.088 31.0579 26.094 31.0341 24.8835C30.9944 22.6789 31.0182 20.0816 31.0977 18.6707L33.4262 19.9774L38.8859 24.7793C39.9429 25.7092 41.5403 25.597 42.4542 24.5308C43.3761 23.4646 43.2648 21.8532 42.2078 20.9313L36.5415 15.945H36.5574ZM35.6196 7.21501C35.715 8.81031 35.2779 10.3976 34.9918 10.7583C34.515 11.1752 33.1322 11.8726 32.25 12.2254C32.4169 11.3516 32.5838 10.5739 32.6871 10.2934C33.0686 9.33138 33.3944 7.30319 33.601 5.8041C33.903 5.756 34.1494 5.73195 34.3242 5.72393C34.7852 5.87625 35.5878 6.726 35.6196 7.21501Z" fill="white"/>
<path d="M58.9366 7.46313C60.4943 7.09437 61.4559 5.52313 61.0903 3.95188C60.7248 2.38064 59.1671 1.41064 57.6095 1.7794L46.7616 4.69742C45.2039 5.06618 44.2423 6.63743 44.6079 8.20867C44.735 8.76181 45.0211 9.24281 45.3946 9.61157C45.3231 11.0545 45.2277 12.3372 45.1165 12.9304C44.894 13.3152 44.7748 13.7722 44.7748 14.2451C44.735 14.3814 44.6953 14.5177 44.6555 14.654C43.7257 17.9327 43.4396 19.1913 43.5827 20.1774C43.8688 22.1895 46.6741 24.8751 48.4861 25.332C49.5828 25.6126 53.3259 25.9733 54.8995 25.5725C56.2584 25.2278 57.077 23.849 56.7432 22.4781C56.4015 21.1073 55.0266 20.2816 53.6756 20.6183C53.7074 20.6183 53.7233 20.6103 53.7233 20.6103C53.0955 20.7225 50.6636 20.5622 49.853 20.4018C49.5431 20.2255 48.9947 19.7044 48.6848 19.3116C48.8119 18.6462 49.1219 17.5159 49.3682 16.6501L57.228 16.1611C58.6267 16.0729 59.6837 14.8624 59.5962 13.4515C59.5088 12.0486 58.3088 10.9744 56.9181 11.0626L50.3696 11.4714C50.4093 10.8942 50.449 10.301 50.4729 9.73182L58.9446 7.45512L58.9366 7.46313Z" fill="white"/>
<path d="M79.5278 3.95188C79.1622 2.38064 77.6046 1.41064 76.0469 1.7794L63.7526 4.69742C62.195 5.06618 61.2334 6.63743 61.5989 8.20867C61.7261 8.76181 62.0122 9.24281 62.3937 9.61157C62.3221 11.0545 62.2188 12.3372 62.1155 12.9304C61.885 13.3152 61.7738 13.7722 61.7738 14.2451C61.734 14.3814 61.6943 14.5097 61.6546 14.654C60.7247 17.9327 60.4387 19.1913 60.5817 20.1774C60.8678 22.1895 63.6732 24.8751 65.4851 25.332C66.5818 25.6126 70.3249 25.9733 71.8905 25.5725C73.2495 25.2278 74.0681 23.849 73.7343 22.4781C73.3926 21.1073 72.0177 20.2816 70.6667 20.6183C70.6905 20.6183 70.7064 20.6103 70.7064 20.6103C70.0786 20.7225 67.6229 20.5622 66.8202 20.4018C66.3831 20.1614 66.0017 19.7685 65.7871 19.5601C65.652 19.4238 65.6679 19.2956 65.7394 18.9589C65.8825 18.3416 66.105 17.5079 66.3037 16.8184C66.3196 16.7623 66.3355 16.7142 66.3514 16.6581H66.4706L74.2111 16.1691C75.6098 16.0809 76.6668 14.8704 76.5794 13.4595C76.492 12.0566 75.2919 10.9824 73.9012 11.0706L67.3527 11.4794C67.3924 10.9263 67.4242 10.3571 67.456 9.82L77.3741 7.46313C78.9317 7.09437 79.8934 5.52313 79.5278 3.95188Z" fill="white"/>
<path d="M85.5352 1.77169C85.5352 1.77169 85.5669 1.84384 85.5908 1.90797C85.5908 1.90797 85.5908 1.90797 85.5908 1.91599L85.5352 1.76367V1.77169Z" fill="white"/>
<path d="M93.88 1.2179C92.68 1.18584 91.6866 2.13981 91.6548 3.35031L91.2972 13.7718C91.2813 14.1967 91.2495 14.7579 91.2177 15.3751C90.9872 14.9022 90.7965 14.5174 90.6694 14.2769C90.4945 13.9482 90.2164 13.5714 89.7157 12.866C88.9846 11.8478 87.8799 10.3167 87.2044 8.98594C86.7832 8.15222 86.4176 7.16618 86.1315 6.27635C86.1315 3.687 85.75 2.34824 85.5991 1.92336C85.1143 0.608646 83.6679 -0.0727612 82.3645 0.408232C81.0533 0.889225 80.3698 2.35625 80.8546 3.67898L80.8307 3.61485C80.8307 3.61485 81.1566 4.72114 81.0612 7.20627C80.942 10.2606 80.5923 14.4853 80.1632 16.3211C79.6546 18.4936 79.1698 22.3816 79.1539 22.5499C78.979 23.9448 79.9645 25.2275 81.3473 25.3958C82.7381 25.5722 84.0017 24.5781 84.1686 23.1833C84.1686 23.1432 84.6374 19.3994 85.0825 17.4915C85.2653 16.7219 85.4242 15.6878 85.5593 14.5414C85.7898 14.8621 86.0044 15.1747 86.203 15.4393C86.4653 15.8 86.7911 16.257 86.8706 16.3932C87.4269 17.4194 89.6124 22.2453 90.4071 24.017C90.4866 24.1933 90.5899 24.3457 90.7091 24.4899C90.7329 25.6203 91.5992 26.5662 92.7356 26.6384C93.9277 26.7105 94.9608 25.7966 95.0324 24.5861C95.0562 24.2655 95.5171 16.754 95.6363 13.9722L96.0019 3.47857C96.0337 2.26807 95.088 1.266 93.888 1.23394L93.88 1.2179Z" fill="white"/>
<path d="M115.496 12.6417C118.055 11.0945 118.182 7.14233 118.031 5.88374C117.713 3.30241 114.193 1.42653 111.88 1.11389C110.084 0.873391 106.714 0.560745 104.306 1.17C102.272 1.68306 98.3143 3.13406 98.1474 3.19017C96.8361 3.67117 96.1527 5.1382 96.6295 6.46093C97.1063 7.78366 98.5607 8.47308 99.8719 7.98407C100.524 7.74357 101.914 7.24655 103.242 6.81365L102.955 11.4071C102.447 11.5194 102.105 11.5995 102.057 11.6156C100.698 11.9282 99.8401 13.299 100.15 14.6699C100.42 15.8563 101.469 16.658 102.63 16.65V16.7862C102.502 19.2473 102.495 24.8028 102.495 25.0433C102.495 26.2538 103.464 27.2318 104.664 27.2318C105.864 27.2318 106.834 26.2538 106.834 25.0433C106.834 24.9872 106.834 19.3596 106.953 17.0107L107.032 15.7521C107.74 15.6078 108.383 15.4795 108.789 15.4154C110.974 15.0787 114.463 13.267 115.488 12.6497L115.496 12.6417ZM107.366 10.4772L107.644 5.92382C108.685 5.92382 109.909 6.00398 111.205 6.17233C111.809 6.2525 112.794 6.63729 112.945 6.94192C113.088 7.2225 112.913 8.00812 112.715 8.36887C111.467 9.09035 109.019 10.2127 108.026 10.365C107.835 10.3971 107.613 10.4371 107.366 10.4772Z" fill="white"/>
<path d="M128.3 20.05C127.227 19.5129 125.923 19.9458 125.391 21.028C125.415 20.9879 125.423 20.9719 125.423 20.9719C125.343 21.1082 124.898 21.7655 123.714 21.7655C121.33 21.7655 120.225 21.533 119.788 20.9398C119.439 20.4748 119.431 19.08 119.955 17.4686C120.766 17.3564 121.807 17.2682 122.339 17.3564C123.73 17.5889 125.947 17.2682 128.84 16.7151C129.047 16.675 129.237 16.6429 129.317 16.6269C130.334 16.4586 131.598 15.8493 131.963 15.6649C133.211 15.0316 133.72 13.5004 133.092 12.2418C132.464 10.9832 130.946 10.4702 129.698 11.1035C129.269 11.3199 128.673 11.5604 128.474 11.6005C128.347 11.6246 128.157 11.6566 127.902 11.7047C124.525 12.3461 123.484 12.3701 123.166 12.322C122.856 12.2739 122.53 12.2499 122.196 12.2338C122.673 11.1837 123.158 10.1255 123.587 9.19556C123.666 9.18754 123.738 9.17953 123.809 9.16349L129.611 7.72853C131.526 7.472 134.8 6.28555 135.81 5.90076C137.304 5.3396 138.075 3.66414 137.51 2.14901C136.954 0.641899 135.293 -0.12769 133.791 0.433469C131.971 1.11488 129.476 1.90851 128.792 1.96463L128.554 1.98066L128.323 2.03678L122.419 3.49579C121.195 3.80042 120.352 4.85059 120.241 6.04505C119.566 7.51208 117.897 11.1275 116.824 13.5726C116.625 13.8612 116.482 14.1899 116.411 14.5426C116.244 14.9434 116.109 15.2801 116.013 15.5286C115.441 17.0598 114.328 20.9077 116.307 23.5692C118.08 25.9501 121.052 26.1506 123.706 26.1506C126.853 26.1506 128.681 24.1705 129.261 22.992C129.794 21.9098 129.365 20.5951 128.292 20.058L128.3 20.05Z" fill="white"/>
<path d="M146.674 1.87584C145.744 1.09824 144.766 0.81766 143.773 1.05816C141.969 1.48303 140.674 3.31081 138.242 8.87429C137.415 10.7582 136.74 12.2893 136.175 13.556C134.952 13.9568 134.093 15.1432 134.173 16.506C134.197 16.8508 134.284 17.1634 134.411 17.46C134.125 18.0773 133.895 18.5743 133.712 18.9832L133.473 19.4962C132.877 20.7869 131.733 22.9113 131.725 22.9353C131.153 24.0015 131.55 25.3243 132.599 25.9014C133.648 26.4786 134.967 26.0858 135.54 25.0196C135.587 24.9314 136.756 22.759 137.407 21.348L137.646 20.843C137.852 20.3941 138.099 19.857 138.424 19.1595L144.615 18.7667C144.615 21.4603 144.576 24.0015 144.576 24.0416C144.56 25.2521 145.521 26.2381 146.713 26.2542C147.913 26.2702 148.899 25.3002 148.907 24.0977C148.907 23.8091 148.994 16.9951 148.907 13.7965C148.637 4.28883 147.699 2.73362 146.682 1.87584H146.674ZM142.207 10.6379C142.962 8.90636 143.98 6.90222 143.98 6.90222L144.115 7.15073C144.115 7.15073 144.401 9.94851 144.528 12.9227L141.111 13.1391C141.444 12.3775 141.81 11.5518 142.207 10.6379Z" fill="white"/>
<path d="M194.976 3.8075C194.801 2.20419 193.363 1.04981 191.781 1.23419C191.535 1.26626 185.821 1.90758 184.526 2.09998L181.855 2.49279C180.25 2.73328 177.834 3.08601 177.54 3.1261C176.729 3.22229 175.275 3.47081 174.496 3.60709C173.455 3.53494 172.43 4.11213 171.993 5.13825C171.993 5.13825 171.993 5.14627 171.993 5.15428C171.89 5.34668 171.802 5.53908 171.739 5.74751C170.999 7.51917 170.793 8.14446 170.721 8.44107C170.658 8.6495 170.403 9.33892 170.181 9.9562C169.76 11.1266 169.338 12.297 168.965 13.3953C168.83 13.6438 168.735 13.9164 168.687 14.205C168.289 15.4075 167.972 16.4576 167.805 17.2112C167.741 17.5158 167.717 17.8044 167.685 18.085C167.542 17.9888 167.383 17.9086 167.217 17.8525C165.905 17.3555 165.365 17.4597 163.958 19.3436C163.958 19.3436 162.17 20.1532 160.406 19.7845C159.897 19.6803 158.745 19.2233 158.284 18.9668C157.561 18.558 156.265 18.0048 155.304 17.0989C154.946 16.7622 154.477 15.3594 154.724 13.8282C154.827 13.1708 155.518 12.0405 155.518 12.0405C156.853 10.4452 158.26 9.32289 160.382 8.17652C161.86 7.37487 162.393 7.70355 162.528 7.92801C162.663 8.15247 162.393 8.97818 162.393 8.97818C162.258 10.9422 162.091 11.2228 162.885 12.3852C163.672 13.5476 165.254 13.8442 166.406 13.0426C167.105 12.5536 167.765 11.5755 168.464 9.9562C169.187 8.29677 169.044 6.1323 168.107 4.58511C167.383 3.38263 166.231 2.6451 164.96 2.55692C164.801 2.5489 164.618 2.52485 164.427 2.50882C162.997 2.36452 160.835 2.14006 157.99 3.67924C155.359 5.09817 153.484 6.58925 151.767 8.61743C151.275 9.09041 149.741 10.7258 149.367 12.9865C149.057 14.8623 148.882 18.3415 151.211 20.5541C152.626 21.8928 154.501 22.951 156.154 23.889C156.615 24.1455 157.044 24.394 157.442 24.6265C159.468 25.829 161.574 26.2138 164.284 25.8691C166.35 25.6045 167.654 23.5362 168.369 21.9089C168.599 22.3578 168.83 22.6945 168.981 22.8789C170.809 25.6366 174.345 25.6446 176.713 25.6446C180.035 25.6446 182.586 23.6725 182.865 23.4481C183.961 22.5742 184.144 20.9629 183.27 19.8647C182.404 18.7584 180.806 18.574 179.718 19.4478L179.733 19.4318C179.336 19.7364 178.025 20.53 176.713 20.53C174.56 20.53 173.368 20.3617 173.169 20.017L173.042 19.7925L172.931 19.6642C172.875 19.5921 172.565 19.1111 172.748 18.2694C172.819 17.9567 172.939 17.5318 173.082 17.0508C173.447 17.0348 173.797 17.0108 174.043 16.9947C174.766 16.9306 177.993 16.7622 178.414 16.7622L182.729 16.6981C184.128 16.6741 185.241 15.5117 185.217 14.1088C185.193 12.6979 184.041 11.5755 182.642 11.5996L178.406 11.6637C177.937 11.6637 176.157 11.7599 174.87 11.8321C174.886 11.792 174.902 11.7359 174.917 11.6958C175.41 10.325 175.553 9.93215 175.617 9.65157C175.641 9.5714 175.68 9.45917 175.744 9.29884C176.547 9.16256 177.635 8.97818 178.192 8.91405C178.51 8.87396 180.171 8.63347 182.674 8.25669L185.312 7.86388C186.282 7.7276 190.375 7.25462 192.401 7.02214C193.991 6.84578 195.127 5.4028 194.952 3.79949L194.976 3.8075Z" fill="white"/>
</g>
<defs>
<clipPath id="clip0_241_42">
<rect width="195" height="31" fill="white"/>
</clipPath>
</defs>
</svg>
