<svg width="195" height="31" viewBox="0 0 195 31" fill="none" xmlns="http://www.w3.org/2000/svg">
<g clip-path="url(#clip0_248_289)">
<path d="M24.1913 13.7322C23.9211 13.0348 23.3728 12.5057 22.6814 12.2732C22.2681 12.1369 21.4019 11.8403 15.5369 12.65C9.05991 13.5398 8.83739 13.9808 8.36056 14.9508C7.8281 16.033 8.25725 17.3477 9.33012 17.8848C9.90232 18.1734 10.546 18.1814 11.1023 17.957C11.5792 17.7646 11.2931 17.8447 11.2692 17.8527C12.1911 17.516 16.5621 16.8747 19.3515 16.6022C19.4469 16.5941 19.3356 16.7144 19.2879 16.8507C19.0893 17.4519 18.8826 18.2696 18.676 18.5261C18.5489 18.6865 18.4217 18.8789 18.0561 19.0232C15.815 19.897 11.754 21.3239 9.74337 21.3961C7.4228 21.4842 5.53137 20.3058 4.56181 18.1734C4.26776 17.5321 4.10087 16.5621 5.07043 14.2132C5.92078 12.153 9.05991 9.42735 10.403 8.25693C10.6494 8.04049 10.8639 7.8561 11.0308 7.70379C13.3991 5.55535 15.1316 4.61742 16.0375 4.417C16.3475 4.79378 16.7925 5.69164 17.015 6.44519C17.3488 7.60759 18.5568 8.27297 19.7091 7.92825C20.8615 7.59156 21.5211 6.37304 21.1794 5.21064C20.8138 3.95204 19.3595 -0.168463 16.1011 -0.000115497C13.9395 0.112116 11.2613 1.61121 8.13804 4.44907C8.00294 4.56932 7.80426 4.74568 7.57379 4.93808C5.73799 6.53337 2.3207 9.51553 1.073 12.5217C-0.190605 15.5841 -0.333654 17.8928 0.620008 19.9851C2.32865 23.7529 5.80157 25.9174 9.90232 25.7571C12.0481 25.6769 15.2826 24.6668 17.6588 23.8251V28.8034C17.6588 30.0139 18.6283 30.9919 19.8283 30.9919C21.0284 30.9919 21.9979 30.0139 21.9979 28.8034V21.2037C24.9463 15.6803 24.4457 14.3575 24.1993 13.7162L24.1913 13.7322Z" fill="#66CC01"/>
<path d="M36.5574 15.945L36.4461 15.8488C37.2567 15.3999 37.964 14.9269 38.3852 14.5502C40.4515 12.6983 40.8012 8.86642 40.674 6.89435C40.4833 3.78393 37.3203 0.609375 34.4117 0.609375C32.7189 0.609375 29.3572 1.4912 28.6976 1.66756C27.3466 2.0283 26.5439 3.4312 26.9016 4.79401C27.1797 5.84418 28.0698 6.55766 29.0791 6.66989C28.9281 7.61584 28.7692 8.38543 28.6579 8.67403C28.3956 9.33138 28.1652 10.4377 27.8632 12.0811C27.7519 12.073 27.6327 12.057 27.5214 12.049C26.1307 11.9287 24.8989 12.9629 24.7797 14.3658C24.6605 15.7126 25.6062 16.891 26.9095 17.0994C26.6393 18.8791 26.6552 22.6789 26.6949 24.9637C26.7188 26.1742 27.7042 27.1361 28.9043 27.1121C30.1043 27.088 31.0579 26.094 31.0341 24.8835C30.9944 22.6789 31.0182 20.0816 31.0977 18.6707L33.4262 19.9774L38.8859 24.7793C39.9429 25.7092 41.5403 25.597 42.4542 24.5308C43.3761 23.4646 43.2648 21.8532 42.2078 20.9313L36.5415 15.945H36.5574ZM35.6196 7.21501C35.715 8.81031 35.2779 10.3976 34.9918 10.7583C34.515 11.1752 33.1322 11.8726 32.25 12.2254C32.4169 11.3516 32.5838 10.5739 32.6871 10.2934C33.0686 9.33138 33.3944 7.30319 33.601 5.8041C33.903 5.756 34.1494 5.73195 34.3242 5.72393C34.7852 5.87625 35.5878 6.726 35.6196 7.21501Z" fill="#66CC01"/>
<path d="M58.9366 7.46338C60.4943 7.09462 61.4559 5.52337 61.0903 3.95213C60.7248 2.38088 59.1671 1.41088 57.6095 1.77964L46.7616 4.69767C45.2039 5.06643 44.2423 6.63767 44.6079 8.20892C44.735 8.76206 45.0211 9.24305 45.3946 9.61181C45.3231 11.0548 45.2277 12.3374 45.1165 12.9307C44.894 13.3155 44.7748 13.7724 44.7748 14.2454C44.735 14.3817 44.6953 14.5179 44.6555 14.6542C43.7257 17.933 43.4396 19.1916 43.5827 20.1776C43.8688 22.1898 46.6741 24.8753 48.4861 25.3323C49.5828 25.6128 53.3259 25.9736 54.8995 25.5728C56.2584 25.2281 57.077 23.8492 56.7432 22.4784C56.4015 21.1075 55.0266 20.2818 53.6756 20.6185C53.7074 20.6185 53.7233 20.6105 53.7233 20.6105C53.0955 20.7228 50.6636 20.5624 49.853 20.4021C49.5431 20.2257 48.9947 19.7047 48.6848 19.3118C48.8119 18.6465 49.1219 17.5161 49.3682 16.6503L57.228 16.1613C58.6267 16.0732 59.6837 14.8627 59.5962 13.4517C59.5088 12.0488 58.3088 10.9746 56.9181 11.0628L50.3696 11.4717C50.4093 10.8945 50.449 10.3012 50.4729 9.73206L58.9446 7.45536L58.9366 7.46338Z" fill="#66CC01"/>
<path d="M79.5278 3.95213C79.1622 2.38088 77.6046 1.41088 76.0469 1.77964L63.7526 4.69767C62.195 5.06643 61.2334 6.63767 61.5989 8.20892C61.7261 8.76206 62.0122 9.24305 62.3937 9.61181C62.3221 11.0548 62.2188 12.3374 62.1155 12.9307C61.885 13.3155 61.7738 13.7724 61.7738 14.2454C61.734 14.3817 61.6943 14.5099 61.6546 14.6542C60.7247 17.933 60.4387 19.1916 60.5817 20.1776C60.8678 22.1898 63.6732 24.8753 65.4851 25.3323C66.5818 25.6128 70.3249 25.9736 71.8905 25.5728C73.2495 25.2281 74.0681 23.8492 73.7343 22.4784C73.3926 21.1075 72.0177 20.2818 70.6667 20.6185C70.6905 20.6185 70.7064 20.6105 70.7064 20.6105C70.0786 20.7228 67.6229 20.5624 66.8202 20.4021C66.3831 20.1616 66.0017 19.7688 65.7871 19.5604C65.652 19.4241 65.6679 19.2958 65.7394 18.9591C65.8825 18.3418 66.105 17.5081 66.3037 16.8187C66.3196 16.7626 66.3355 16.7145 66.3514 16.6584H66.4706L74.2111 16.1694C75.6098 16.0812 76.6668 14.8707 76.5794 13.4598C76.492 12.0569 75.2919 10.9826 73.9012 11.0708L67.3527 11.4797C67.3924 10.9265 67.4242 10.3574 67.456 9.82024L77.3741 7.46338C78.9317 7.09462 79.8934 5.52337 79.5278 3.95213Z" fill="#66CC01"/>
<path d="M85.5352 1.77169C85.5352 1.77169 85.5669 1.84384 85.5908 1.90797C85.5908 1.90797 85.5908 1.90797 85.5908 1.91599L85.5352 1.76367V1.77169Z" fill="#66CC01"/>
<path d="M93.88 1.21864C92.68 1.18657 91.6866 2.14054 91.6548 3.35104L91.2972 13.7726C91.2813 14.1974 91.2495 14.7586 91.2177 15.3759C90.9872 14.9029 90.7965 14.5181 90.6694 14.2776C90.4945 13.9489 90.2164 13.5721 89.7157 12.8667C88.9846 11.8486 87.8799 10.3174 87.2044 8.98667C86.7832 8.15295 86.4176 7.16692 86.1315 6.27708C86.1315 3.68773 85.75 2.34897 85.5991 1.92409C85.1143 0.609378 83.6679 -0.0720288 82.3645 0.408964C81.0533 0.889957 80.3698 2.35699 80.8546 3.67972L80.8307 3.61558C80.8307 3.61558 81.1566 4.72187 81.0612 7.207C80.942 10.2613 80.5923 14.486 80.1632 16.3218C79.6546 18.4943 79.1698 22.3823 79.1539 22.5507C78.979 23.9456 79.9645 25.2282 81.3473 25.3966C82.7381 25.5729 84.0017 24.5789 84.1686 23.184C84.1686 23.1439 84.6374 19.4002 85.0825 17.4922C85.2653 16.7226 85.4242 15.6885 85.5593 14.5421C85.7898 14.8628 86.0044 15.1755 86.203 15.44C86.4653 15.8007 86.7911 16.2577 86.8706 16.394C87.4269 17.4201 89.6124 22.246 90.4071 24.0177C90.4866 24.1941 90.5899 24.3464 90.7091 24.4907C90.7329 25.621 91.5992 26.567 92.7356 26.6391C93.9277 26.7113 94.9608 25.7974 95.0324 24.5869C95.0562 24.2662 95.5171 16.7547 95.6363 13.973L96.0019 3.4793C96.0337 2.2688 95.088 1.26674 93.888 1.23467L93.88 1.21864Z" fill="#66CC01"/>
<path d="M115.496 12.6422C118.055 11.095 118.182 7.14282 118.031 5.88422C117.713 3.30289 114.193 1.42702 111.88 1.11438C110.084 0.873879 106.714 0.561234 104.306 1.17049C102.272 1.68355 98.3143 3.13455 98.1474 3.19066C96.8361 3.67166 96.1527 5.13868 96.6295 6.46142C97.1063 7.78415 98.5607 8.47357 99.8719 7.98456C100.524 7.74406 101.914 7.24704 103.242 6.81414L102.955 11.4076C102.447 11.5199 102.105 11.6 102.057 11.6161C100.698 11.9287 99.8401 13.2995 100.15 14.6704C100.42 15.8568 101.469 16.6585 102.63 16.6505V16.7867C102.502 19.2478 102.495 24.8033 102.495 25.0438C102.495 26.2543 103.464 27.2323 104.664 27.2323C105.864 27.2323 106.834 26.2543 106.834 25.0438C106.834 24.9877 106.834 19.36 106.953 17.0112L107.032 15.7526C107.74 15.6083 108.383 15.48 108.789 15.4159C110.974 15.0792 114.463 13.2675 115.488 12.6502L115.496 12.6422ZM107.366 10.4777L107.644 5.92431C108.685 5.92431 109.909 6.00447 111.205 6.17282C111.809 6.25298 112.794 6.63778 112.945 6.94241C113.088 7.22299 112.913 8.00861 112.715 8.36935C111.467 9.09084 109.019 10.2132 108.026 10.3655C107.835 10.3975 107.613 10.4376 107.366 10.4777Z" fill="#66CC01"/>
<path d="M128.3 20.0495C127.227 19.5124 125.923 19.9453 125.391 21.0275C125.415 20.9874 125.423 20.9714 125.423 20.9714C125.343 21.1077 124.898 21.765 123.714 21.765C121.33 21.765 120.225 21.5325 119.788 20.9393C119.439 20.4744 119.431 19.0795 119.955 17.4682C120.766 17.3559 121.807 17.2677 122.339 17.3559C123.73 17.5884 125.947 17.2677 128.84 16.7146C129.047 16.6745 129.237 16.6424 129.317 16.6264C130.334 16.4581 131.598 15.8488 131.963 15.6644C133.211 15.0311 133.72 13.5 133.092 12.2414C132.464 10.9828 130.946 10.4697 129.698 11.103C129.269 11.3195 128.673 11.56 128.474 11.6C128.347 11.6241 128.157 11.6562 127.902 11.7043C124.525 12.3456 123.484 12.3696 123.166 12.3215C122.856 12.2734 122.53 12.2494 122.196 12.2333C122.673 11.1832 123.158 10.125 123.587 9.19507C123.666 9.18705 123.738 9.17904 123.809 9.163L129.611 7.72804C131.526 7.47151 134.8 6.28506 135.81 5.90027C137.304 5.33911 138.075 3.66365 137.51 2.14852C136.954 0.641411 135.293 -0.128178 133.791 0.43298C131.971 1.11439 129.476 1.90803 128.792 1.96414L128.554 1.98017L128.323 2.03629L122.419 3.4953C121.195 3.79993 120.352 4.8501 120.241 6.04457C119.566 7.51159 117.897 11.1271 116.824 13.5721C116.625 13.8607 116.482 14.1894 116.411 14.5421C116.244 14.9429 116.109 15.2796 116.013 15.5281C115.441 17.0593 114.328 20.9072 116.307 23.5687C118.08 25.9497 121.052 26.1501 123.706 26.1501C126.853 26.1501 128.681 24.17 129.261 22.9916C129.794 21.9093 129.365 20.5946 128.292 20.0575L128.3 20.0495Z" fill="#66CC01"/>
<path d="M146.674 1.87584C145.744 1.09824 144.766 0.81766 143.773 1.05816C141.969 1.48303 140.674 3.31081 138.242 8.87429C137.415 10.7582 136.74 12.2893 136.175 13.556C134.952 13.9568 134.093 15.1432 134.173 16.506C134.197 16.8508 134.284 17.1634 134.411 17.46C134.125 18.0773 133.895 18.5743 133.712 18.9832L133.473 19.4962C132.877 20.7869 131.733 22.9113 131.725 22.9353C131.153 24.0015 131.55 25.3243 132.599 25.9014C133.648 26.4786 134.967 26.0858 135.54 25.0196C135.587 24.9314 136.756 22.759 137.407 21.348L137.646 20.843C137.852 20.3941 138.099 19.857 138.424 19.1595L144.615 18.7667C144.615 21.4603 144.576 24.0015 144.576 24.0416C144.56 25.2521 145.521 26.2381 146.713 26.2542C147.913 26.2702 148.899 25.3002 148.907 24.0977C148.907 23.8091 148.994 16.9951 148.907 13.7965C148.637 4.28883 147.699 2.73362 146.682 1.87584H146.674ZM142.207 10.6379C142.962 8.90636 143.98 6.90222 143.98 6.90222L144.115 7.15073C144.115 7.15073 144.401 9.94851 144.528 12.9227L141.111 13.1391C141.444 12.3775 141.81 11.5518 142.207 10.6379Z" fill="#66CC01"/>
<path d="M194.976 3.80775C194.801 2.20444 193.363 1.05005 191.781 1.23443C191.535 1.2665 185.821 1.90782 184.526 2.10022L181.855 2.49303C180.25 2.73353 177.834 3.08626 177.54 3.12634C176.729 3.22254 175.275 3.47105 174.496 3.60733C173.455 3.53518 172.43 4.11238 171.993 5.13849C171.993 5.13849 171.993 5.14651 171.993 5.15453C171.89 5.34692 171.802 5.53932 171.739 5.74775C170.999 7.51941 170.793 8.1447 170.721 8.44131C170.658 8.64974 170.403 9.33917 170.181 9.95644C169.76 11.1269 169.338 12.2973 168.965 13.3955C168.83 13.6441 168.735 13.9166 168.687 14.2052C168.289 15.4077 167.972 16.4579 167.805 17.2114C167.741 17.516 167.717 17.8046 167.685 18.0852C167.542 17.989 167.383 17.9089 167.217 17.8527C165.905 17.3557 165.365 17.4599 163.958 19.3438C163.958 19.3438 162.17 20.1535 160.406 19.7847C159.897 19.6805 158.745 19.2236 158.284 18.967C157.561 18.5582 156.265 18.0051 155.304 17.0992C154.946 16.7625 154.477 15.3596 154.724 13.8284C154.827 13.1711 155.518 12.0407 155.518 12.0407C156.853 10.4455 158.26 9.32313 160.382 8.17677C161.86 7.37511 162.393 7.70379 162.528 7.92825C162.663 8.15272 162.393 8.97842 162.393 8.97842C162.258 10.9425 162.091 11.2231 162.885 12.3855C163.672 13.5479 165.254 13.8445 166.406 13.0428C167.105 12.5538 167.765 11.5758 168.464 9.95644C169.187 8.29702 169.044 6.13255 168.107 4.58535C167.383 3.38287 166.231 2.64535 164.96 2.55717C164.801 2.54915 164.618 2.5251 164.427 2.50907C162.997 2.36477 160.835 2.1403 157.99 3.67948C155.359 5.09841 153.484 6.58949 151.767 8.61768C151.275 9.09065 149.741 10.726 149.367 12.9867C149.057 14.8626 148.882 18.3418 151.211 20.5543C152.626 21.8931 154.501 22.9513 156.154 23.8892C156.615 24.1457 157.044 24.3942 157.442 24.6267C159.468 25.8292 161.574 26.214 164.284 25.8693C166.35 25.6047 167.654 23.5365 168.369 21.9091C168.599 22.358 168.83 22.6947 168.981 22.8791C170.809 25.6368 174.345 25.6448 176.713 25.6448C180.035 25.6448 182.586 23.6728 182.865 23.4483C183.961 22.5745 184.144 20.9632 183.27 19.8649C182.404 18.7586 180.806 18.5742 179.718 19.448L179.733 19.432C179.336 19.7366 178.025 20.5303 176.713 20.5303C174.56 20.5303 173.368 20.3619 173.169 20.0172L173.042 19.7927L172.931 19.6645C172.875 19.5923 172.565 19.1113 172.748 18.2696C172.819 17.957 172.939 17.5321 173.082 17.0511C173.447 17.0351 173.797 17.011 174.043 16.995C174.766 16.9308 177.993 16.7625 178.414 16.7625L182.729 16.6984C184.128 16.6743 185.241 15.5119 185.217 14.109C185.193 12.6981 184.041 11.5758 182.642 11.5998L178.406 11.664C177.937 11.664 176.157 11.7602 174.87 11.8323C174.886 11.7922 174.902 11.7361 174.917 11.696C175.41 10.3252 175.553 9.93239 175.617 9.65181C175.641 9.57165 175.68 9.45942 175.744 9.29908C176.547 9.1628 177.635 8.97842 178.192 8.91429C178.51 8.87421 180.171 8.63371 182.674 8.25693L185.312 7.86412C186.282 7.72784 190.375 7.25486 192.401 7.02238C193.991 6.84602 195.127 5.40304 194.952 3.79973L194.976 3.80775Z" fill="#66CC01"/>
</g>
<defs>
<clipPath id="clip0_248_289">
<rect width="195" height="31" fill="white"/>
</clipPath>
</defs>
</svg>
