<svg width="157" height="34" viewBox="0 0 157 34" fill="none" xmlns="http://www.w3.org/2000/svg">
<path d="M89.7748 5.78936H85.552V4.13867H82.5376V5.78936H78.3174V8.30884H80.7026C80.6552 8.34307 80.6104 8.37729 80.5657 8.41415C79.51 9.31716 78.9782 10.4597 78.9782 11.8419C78.9782 13.1398 79.5258 14.2113 80.6052 15.059C81.5977 15.8489 82.7429 16.2411 84.0461 16.2411C85.2756 16.2411 86.3813 15.8489 87.3606 15.059C88.4453 14.2113 88.9876 13.1398 88.9876 11.8419C88.9876 10.4597 88.4664 9.31716 87.4186 8.41415C87.3764 8.37729 87.3317 8.34307 87.2843 8.30884H89.7696V5.78936H89.7748ZM85.4967 13.3873C85.0676 13.8375 84.5516 14.0613 83.9461 14.0613C83.3405 14.0613 82.7877 13.8375 82.3585 13.3873C81.9426 12.9634 81.7372 12.4501 81.7372 11.8419C81.7372 11.2338 81.9426 10.6862 82.3585 10.2333C82.7877 9.79631 83.3168 9.5778 83.9461 9.5778C84.5753 9.5778 85.0676 9.79631 85.4967 10.2333C85.9364 10.6862 86.1601 11.2232 86.1601 11.8419C86.1601 12.4606 85.939 12.9476 85.4967 13.3873Z" fill="white"/>
<path d="M82.6193 17.1055H79.7839V22.1234C79.7839 22.7157 79.905 23.1396 80.1446 23.3923C80.3473 23.6029 80.6817 23.7109 81.1503 23.7109H94.8982V21.065H82.6193V17.1055Z" fill="white"/>
<path d="M94.7612 5.72656H91.9285V18.5978H94.7612V12.898H97.0543V10.2337H94.7612V5.72656Z" fill="white"/>
<path d="M115.594 5.72852H99.6765V8.3691H112.761V11.5652H99.092V14.211H106.248V16.6226H99.6765V19.2684H112.761V23.7966H115.594V16.6226H109.062V14.211H116.441V11.5652H115.594V5.72852Z" fill="white"/>
<path d="M135.976 14.7086V5.72852H133.143V7.08171H130.168V5.72852H127.372V7.87942H122.873V5.72852H120.056V13.1211C120.056 13.7134 120.169 14.1347 120.396 14.39C120.612 14.6033 120.949 14.7112 121.407 14.7112H126.741C126.356 14.9271 125.993 15.1904 125.648 15.5116C124.455 16.5936 123.86 17.9652 123.86 19.6133C123.86 21.2613 124.455 22.6409 125.648 23.7413C126.762 24.7707 128.081 25.2867 129.608 25.2867C131.134 25.2867 132.443 24.7733 133.57 23.7413C134.786 22.6409 135.397 21.264 135.397 19.6133C135.397 17.9626 134.786 16.5936 133.57 15.5116C132.54 14.5796 131.361 14.0741 130.037 13.982C130.121 13.7503 130.166 13.4686 130.166 13.1211V13.079H133.141V14.7112H135.973L135.976 14.7086ZM122.873 12.1286V10.2278H127.372V12.1286H122.873ZM131.619 17.5387C132.209 18.1048 132.503 18.7972 132.503 19.6133C132.503 20.4294 132.209 21.1218 131.619 21.6905C131.056 22.2407 130.392 22.5171 129.629 22.5171C128.865 22.5171 128.223 22.2407 127.662 21.6905C127.07 21.1244 126.775 20.4321 126.775 19.6133C126.775 18.7945 127.07 18.1048 127.662 17.5387C128.223 17.0017 128.878 16.7358 129.629 16.7358C130.379 16.7358 131.056 17.0043 131.619 17.5387ZM130.168 10.8228V9.33793H133.143V10.8228H130.168Z" fill="white"/>
<path d="M149.966 18.2733H153.265V19.6923H156.119V5.72852H153.286V15.9038H149.966V18.2733Z" fill="white"/>
<path d="M148.236 12.4383C148.486 12.2962 148.731 12.1303 148.968 11.9381C150.021 11.1167 150.55 10.0742 150.55 8.81575C150.55 7.46782 150.04 6.35946 149.026 5.48278C148.089 4.65875 146.996 4.24805 145.743 4.24805C144.49 4.24805 143.313 4.65875 142.363 5.48278C141.331 6.35946 140.817 7.46782 140.817 8.81575C140.817 10.0768 141.347 11.1167 142.402 11.9381C142.642 12.1277 142.889 12.2962 143.147 12.4383H139.783V14.9288H145.293V18.7936H148.028V14.9288H151.582V12.4383H148.236ZM147.152 10.3164C146.73 10.756 146.233 10.9719 145.648 10.9719C145.032 10.9719 144.522 10.756 144.103 10.3164C143.7 9.90305 143.497 9.40284 143.497 8.81575C143.497 8.22867 143.7 7.6916 144.103 7.25194C144.519 6.82808 145.032 6.61483 145.648 6.61483C146.264 6.61483 146.733 6.82808 147.152 7.25194C147.581 7.6916 147.797 8.21024 147.797 8.81575C147.797 9.38705 147.583 9.88989 147.152 10.3164Z" fill="white"/>
<path d="M143.937 21.0669V16.5176H141.141V22.1278C141.141 22.7202 141.26 23.144 141.505 23.3968C141.715 23.6074 142.058 23.7153 142.526 23.7153H156.256V21.0695H143.935L143.937 21.0669Z" fill="white"/>
<path d="M52.2013 8.36069H49.7266V10.8828H52.2013V14.7002H55.0156V5.71484H52.2013V8.36069Z" fill="white"/>
<path d="M66.8889 11.2071C67.476 12.0574 68.637 12.6998 70.3798 13.1368C71.6435 13.4606 73.1126 13.6528 74.7896 13.7081V11.0412C72.9941 10.9833 71.5514 10.7279 70.4588 10.2751C69.2899 9.79593 68.6844 9.14566 68.6449 8.32689H74.787V5.67578H58.9856V8.32689H65.1092C65.0829 9.17199 64.4853 9.83805 63.3164 10.3172C62.237 10.7569 60.7942 11.0043 58.9856 11.0596V13.7107C60.61 13.6397 62.0579 13.4475 63.3348 13.1394C65.104 12.7024 66.286 12.06 66.8863 11.2097L66.8889 11.2071Z" fill="white"/>
<path d="M58.1904 15.4668V18.1153H65.4724V23.8572H68.2841V18.1153H75.5846V15.4668H58.1904Z" fill="white"/>
<path d="M49.2865 14.0231V11.8722C48.2598 11.68 47.3752 11.3852 46.8197 10.7955C46.2352 10.1741 45.7166 9.20005 45.6692 8.23385H49.2049V5.7723H45.5034V4.13477H42.481V5.7723H38.8242V8.23385H42.1941C42.1572 9.38697 41.6544 10.34 41.1436 10.7955C40.5565 11.322 39.7536 11.68 38.74 11.8722V14.7234C39.7272 14.6629 40.6987 14.3706 41.6596 13.8441C42.7022 13.2754 43.4815 12.3988 44.0027 11.5063C44.495 12.3961 45.2375 13.2649 46.2221 13.823C46.4722 13.9652 46.7223 14.0889 46.9803 14.1969C44.5635 14.8709 42.797 17.0481 42.797 19.6307C42.797 22.7531 45.3823 25.2805 48.5678 25.2805C51.7533 25.2805 54.336 22.7531 54.336 19.6307C54.336 16.748 52.1351 14.368 49.2839 14.0231H49.2865ZM50.5502 21.6974C49.9868 22.245 49.3207 22.5241 48.5599 22.5241C47.7991 22.5241 47.1541 22.2476 46.5907 21.6974C45.9983 21.1287 45.7034 20.439 45.7034 19.6202C45.7034 18.8014 45.9983 18.1117 46.5907 17.5483C47.1541 17.0112 47.8096 16.7401 48.5599 16.7401C49.3102 16.7401 49.9894 17.0086 50.5502 17.5483C51.1399 18.1117 51.4322 18.8041 51.4322 19.6202C51.4322 20.4363 51.1399 21.1287 50.5502 21.6974Z" fill="white"/>
<path d="M42.1366 32.7583C41.947 32.8584 41.5337 32.9531 41.0072 32.9531C39.6171 32.9531 38.7747 32.0844 38.7747 30.7522C38.7747 29.3121 39.7751 28.4434 41.1098 28.4434C41.6364 28.4434 42.0129 28.5539 42.1735 28.6382L41.9997 29.2727C41.7917 29.1831 41.5074 29.1042 41.1441 29.1042C40.2542 29.1042 39.6119 29.6623 39.6119 30.7127C39.6119 31.6737 40.1752 32.2897 41.1362 32.2897C41.46 32.2897 41.797 32.2239 42.005 32.1265L42.134 32.7557L42.1366 32.7583Z" fill="white"/>
<path d="M43.5792 28.5156V30.2664H45.43V28.5156H46.2277V32.8885H45.43V30.9614H43.5792V32.8885H42.7815V28.5156H43.5792Z" fill="white"/>
<path d="M49.5529 30.9502H47.9048V32.2349H49.7477V32.8905H47.1045V28.5176H49.6503V29.1731H47.9048V30.3025H49.5529V30.9502Z" fill="white"/>
<path d="M54.2942 30.6574C54.2942 32.1239 53.407 32.961 52.1986 32.961C50.9902 32.961 50.1873 32.0212 50.1873 30.7338C50.1873 29.4464 51.0297 28.4434 52.2644 28.4434C53.4992 28.4434 54.2942 29.4096 54.2942 30.6574ZM51.0297 30.7233C51.0297 31.6131 51.4773 32.3187 52.2434 32.3187C53.0095 32.3187 53.4518 31.6052 53.4518 30.689C53.4518 29.8676 53.0437 29.0857 52.2434 29.0857C51.443 29.0857 51.0297 29.8203 51.0297 30.7206V30.7233Z" fill="white"/>
<path d="M54.9473 32.8905V28.5176H55.8555L56.985 30.392C57.2772 30.8791 57.5299 31.3872 57.7326 31.8585H57.7458C57.6932 31.2766 57.6747 30.7106 57.6747 30.0419V28.5176H58.4145V32.8905H57.5905L56.4479 30.9712C56.1688 30.4895 55.8766 29.9524 55.6634 29.4574L55.6423 29.4653C55.6739 30.0287 55.6818 30.6079 55.6818 31.3267V32.8905H54.9473Z" fill="white"/>
<path d="M62.8031 32.6883C62.524 32.7936 61.979 32.9357 61.3946 32.9357C60.6548 32.9357 60.0967 32.7462 59.6807 32.3513C59.2911 31.9827 59.0646 31.4035 59.0699 30.7427C59.0699 29.3605 60.0572 28.4707 61.5025 28.4707C62.0422 28.4707 62.4634 28.5813 62.6635 28.6787L62.4898 29.3237C62.2502 29.2184 61.958 29.1341 61.4972 29.1341C60.5626 29.1341 59.9071 29.687 59.9071 30.7059C59.9071 31.7247 60.5179 32.2907 61.4262 32.2907C61.7105 32.2907 61.9264 32.2512 62.0291 32.1986V31.1087H61.2577V30.4794H62.8031V32.6935V32.6883Z" fill="white"/>
<path d="M64.4536 28.5144H65.2513V31.3498C65.2513 32.5555 64.6669 32.9583 63.7981 32.9583C63.577 32.9583 63.2979 32.9215 63.1294 32.8556L63.2268 32.2133C63.3558 32.2501 63.5322 32.2896 63.7191 32.2896C64.1746 32.2896 64.4536 32.0816 64.4536 31.3234V28.5117V28.5144Z" fill="white"/>
<path d="M66.8861 28.5156V31.0667C66.8861 31.9223 67.2441 32.3199 67.7812 32.3199C68.3604 32.3199 68.7026 31.925 68.7026 31.0667V28.5156H69.5003V31.014C69.5003 32.3646 68.8053 32.9596 67.7549 32.9596C66.7044 32.9596 66.0884 32.3962 66.0884 31.0193V28.5156H66.8861Z" fill="white"/>
<path d="M72.4886 28.5156V30.2664H74.3394V28.5156H75.1371V32.8885H74.3394V30.9614H72.4886V32.8885H71.6909V28.5156H72.4886Z" fill="white"/>
<path d="M76.8931 31.6505L76.5167 32.8905H75.6926L77.0932 28.5176H78.1121L79.5337 32.8905H78.6781L78.2832 31.6505H76.8931ZM78.1437 31.0476L77.7988 29.9682C77.7145 29.7023 77.6434 29.4048 77.5776 29.1494H77.5645C77.4986 29.4022 77.4355 29.7075 77.3565 29.9682L77.0195 31.0476H78.1437Z" fill="white"/>
<path d="M80.1077 32.8905V28.5176H81.0159L82.1454 30.392C82.4376 30.8791 82.6903 31.3872 82.893 31.8585H82.9062C82.8536 31.2766 82.8351 30.7106 82.8351 30.0419V28.5176H83.5749V32.8905H82.7509L81.6083 30.9712C81.3292 30.4895 81.037 29.9524 80.8238 29.4574L80.8027 29.4653C80.8343 30.0287 80.8422 30.6079 80.8422 31.3267V32.8905H80.1077Z" fill="white"/>
<path d="M84.4597 28.5156H85.2522V30.527H85.2732C85.3759 30.3585 85.4865 30.2032 85.5918 30.0531L86.7344 28.5156H87.7216L86.2157 30.3796L87.819 32.8911H86.8844L85.6444 30.885L85.2548 31.3537V32.8911H84.4624V28.5183L84.4597 28.5156Z" fill="white"/>
<path d="M91.9124 30.6574C91.9124 32.1239 91.0226 32.961 89.8168 32.961C88.611 32.961 87.8054 32.0212 87.8054 30.7338C87.8054 29.4464 88.6479 28.4434 89.8826 28.4434C91.1173 28.4434 91.9124 29.4096 91.9124 30.6574ZM88.6479 30.7233C88.6479 31.6131 89.0954 32.3187 89.8615 32.3187C90.6277 32.3187 91.07 31.6052 91.07 30.689C91.07 29.8676 90.6619 29.0857 89.8615 29.0857C89.0612 29.0857 88.6479 29.8203 88.6479 30.7206V30.7233Z" fill="white"/>
<path d="M96.4461 30.6574C96.4461 32.1239 95.5563 32.961 94.3505 32.961C93.1447 32.961 92.3391 32.0212 92.3391 30.7338C92.3391 29.4464 93.1816 28.4434 94.4163 28.4434C95.651 28.4434 96.4461 29.4096 96.4461 30.6574ZM93.1816 30.7233C93.1816 31.6131 93.6291 32.3187 94.3952 32.3187C95.1613 32.3187 95.601 31.6052 95.601 30.689C95.601 29.8676 95.1929 29.0857 94.3952 29.0857C93.5975 29.0857 93.1816 29.8203 93.1816 30.7206V30.7233Z" fill="white"/>
<path d="M97.0991 28.5156H97.8916V30.527H97.9126C98.0153 30.3585 98.1259 30.2032 98.2312 30.0531L99.3738 28.5156H100.361L98.8551 30.3796L100.458 32.8911H99.5238L98.2838 30.885L97.8942 31.3537V32.8911H97.1017V28.5183L97.0991 28.5156Z" fill="white"/>
<path d="M105.653 32.6883C105.374 32.7936 104.829 32.9357 104.244 32.9357C103.504 32.9357 102.946 32.7462 102.53 32.3513C102.141 31.9827 101.914 31.4035 101.92 30.7427C101.92 29.3605 102.907 28.4707 104.352 28.4707C104.892 28.4707 105.313 28.5813 105.513 28.6787L105.339 29.3237C105.1 29.2184 104.808 29.1341 104.347 29.1341C103.412 29.1341 102.757 29.687 102.757 30.7059C102.757 31.7247 103.367 32.2907 104.276 32.2907C104.56 32.2907 104.776 32.2512 104.879 32.1986V31.1087H104.107V30.4794H105.653V32.6935V32.6883Z" fill="white"/>
<path d="M108.883 30.9502H107.235V32.2349H109.078V32.8905H106.434V28.5176H108.977V29.1731H107.232V30.3025H108.88V30.9502H108.883Z" fill="white"/>
<path d="M109.741 32.8905V28.5176H110.649L111.779 30.392C112.071 30.8791 112.324 31.3872 112.527 31.8585H112.54C112.487 31.2766 112.469 30.7106 112.469 30.0419V28.5176H113.208V32.8905H112.384L111.242 30.9712C110.963 30.4895 110.671 29.9524 110.457 29.4574L110.436 29.4653C110.468 30.0287 110.476 30.6079 110.476 31.3267V32.8905H109.741Z" fill="white"/>
<path d="M116.541 30.9502H114.893V32.2349H116.736V32.8905H114.093V28.5176H116.636V29.1731H114.891V30.3025H116.539V30.9502H116.541Z" fill="white"/>
<path d="M117.4 28.5758C117.697 28.5232 118.147 28.4863 118.608 28.4863C119.237 28.4863 119.666 28.589 119.959 28.8365C120.198 29.0366 120.335 29.342 120.335 29.7105C120.335 30.2739 119.951 30.6583 119.543 30.8084V30.8268C119.853 30.9453 120.043 31.2506 120.153 31.6719C120.29 32.2168 120.406 32.7223 120.498 32.8908H119.674C119.608 32.7618 119.506 32.4038 119.382 31.8588C119.258 31.2875 119.05 31.1058 118.598 31.0927H118.195V32.8908H117.402V28.5758H117.4ZM118.192 30.5082H118.666C119.203 30.5082 119.543 30.2239 119.543 29.7869C119.543 29.3077 119.206 29.0866 118.687 29.0866C118.434 29.0866 118.271 29.1076 118.195 29.1261V30.5082H118.192Z" fill="white"/>
<path d="M121.981 31.6505L121.604 32.8905H120.78L122.181 28.5176H123.199L124.621 32.8905H123.765L123.371 31.6505H121.981ZM123.231 31.0476L122.886 29.9682C122.802 29.7023 122.731 29.4048 122.665 29.1494H122.652C122.586 29.4022 122.523 29.7075 122.444 29.9682L122.107 31.0476H123.231Z" fill="white"/>
<path d="M125.195 28.5156H125.993V32.2224H127.791V32.8911H125.195V28.5183V28.5156Z" fill="white"/>
<path d="M130.468 28.5156V30.2664H132.319V28.5156H133.117V32.8885H132.319V30.9614H130.468V32.8885H129.671V28.5156H130.468Z" fill="white"/>
<path d="M137.877 30.6574C137.877 32.1239 136.99 32.961 135.781 32.961C134.573 32.961 133.77 32.0212 133.77 30.7338C133.77 29.4464 134.612 28.4434 135.847 28.4434C137.082 28.4434 137.877 29.4096 137.877 30.6574ZM134.612 30.7233C134.612 31.6131 135.06 32.3187 135.826 32.3187C136.592 32.3187 137.034 31.6052 137.034 30.689C137.034 29.8676 136.626 29.0857 135.826 29.0857C135.026 29.0857 134.612 29.8203 134.612 30.7206V30.7233Z" fill="white"/>
<path d="M138.508 32.0212C138.769 32.1712 139.159 32.3002 139.567 32.3002C140.08 32.3002 140.364 32.0607 140.364 31.7026C140.364 31.3709 140.143 31.1787 139.585 30.976C138.864 30.7154 138.403 30.331 138.403 29.7018C138.403 28.9883 139.001 28.4434 139.946 28.4434C140.42 28.4434 140.77 28.5487 140.999 28.6645L140.804 29.3095C140.649 29.2226 140.343 29.1015 139.935 29.1015C139.43 29.1015 139.209 29.3727 139.209 29.6254C139.209 29.9624 139.461 30.1177 140.046 30.3468C140.804 30.6311 141.175 31.0155 141.175 31.6447C141.175 32.345 140.644 32.9558 139.514 32.9558C139.053 32.9558 138.574 32.8268 138.332 32.682L138.506 32.0212H138.508Z" fill="white"/>
<path d="M141.863 28.5758C142.15 28.5232 142.544 28.4863 143.084 28.4863C143.669 28.4863 144.095 28.6074 144.374 28.8444C144.632 29.0576 144.803 29.4025 144.803 29.8106C144.803 30.2186 144.674 30.5688 144.427 30.8031C144.108 31.1216 143.611 31.2717 143.045 31.2717C142.895 31.2717 142.76 31.2664 142.655 31.2454V32.8934H141.863V28.5785V28.5758ZM142.652 30.6109C142.75 30.6372 142.879 30.6451 143.042 30.6451C143.64 30.6451 144.003 30.3529 144.003 29.8395C144.003 29.3525 143.666 29.0918 143.116 29.0918C142.895 29.0918 142.739 29.1129 142.655 29.1313V30.6109H142.652Z" fill="white"/>
<path d="M146.251 28.5156V32.8885H145.454V28.5156H146.251Z" fill="white"/>
<path d="M147.97 29.1843H146.725V28.5156H150.029V29.1843H148.771V32.8885H147.97V29.1843Z" fill="white"/>
<path d="M150.908 31.6505L150.532 32.8905H149.708L151.108 28.5176H152.127L153.549 32.8905H152.693L152.298 31.6505H150.908ZM152.159 31.0476L151.814 29.9682C151.73 29.7023 151.659 29.4048 151.593 29.1494H151.58C151.514 29.4022 151.451 29.7075 151.372 29.9682L151.035 31.0476H152.159Z" fill="white"/>
<path d="M154.123 28.5156H154.921V32.2224H156.719V32.8911H154.123V28.5183V28.5156Z" fill="white"/>
<path d="M25.6032 22.2564C25.6032 22.2564 23.2917 28.8434 16.215 29.0119C11.4157 29.1251 7.26655 26.0817 5.65008 21.5614C3.66504 15.6352 6.73212 9.09036 12.9374 6.00222C15.2146 4.91229 17.6288 4.35943 20.1167 4.35943C23.6076 4.35943 27.0801 5.45463 30.1551 7.52655L30.2236 7.57394C30.9502 8.08994 31.1345 8.20052 31.4188 8.20052C31.4188 8.20052 31.7479 8.19525 31.9085 8.05835C32.0717 7.91882 32.098 7.77665 32.098 7.77665C32.2981 7.33436 31.9664 7.01318 31.7689 6.82099C29.1099 4.25412 24.7686 2.54814 20.4273 2.36649C20.2351 2.36122 20.0403 2.35859 19.8508 2.35859C15.4042 2.35859 11.6974 3.63281 7.86154 6.74464C11.9238 3.00096 15.7043 1.74254 20.7117 1.40293C21.8148 1.32921 23.4102 1.42662 24.1842 1.42662C25.1872 1.42662 25.0951 0.660509 24.329 0.470956C22.7678 0.0786863 18.3949 -0.642669 12.5319 1.22127C7.01118 2.97201 2.8647 6.81836 0.998131 11.91C-0.752604 16.683 -0.18921 21.6799 2.60144 25.9975C5.61849 30.3835 10.2757 32.9319 15.8228 33.0504C18.8319 33.1162 21.046 32.3949 23.4681 31.0943C27.5224 28.7907 29.747 24.7733 29.9076 20.7374H26.0034C25.9217 21.2613 25.7954 21.7351 25.6032 22.2512V22.2564Z" fill="white"/>
<path d="M25.9008 11.7766C24.5239 10.6341 22.5494 9.48357 19.8745 9.30718C18.3555 9.20714 17.1813 9.32035 16.1941 9.77054C16.1941 9.77054 15.2463 10.1839 15.3437 10.5946C15.4622 11.0948 16.252 11.1132 16.252 11.1132C16.5942 11.0763 16.9417 11.0579 17.2866 11.0579C19.3164 11.0579 21.2146 11.6845 22.781 12.8692C23.2207 13.1983 23.613 13.5195 23.971 13.917H25.9008V11.7793V11.7766Z" fill="white"/>
<path fill-rule="evenodd" clip-rule="evenodd" d="M29.2446 14.7242V12.0547H26.7145V14.7242H24.0371V17.2595H26.7145V19.929H29.2446V17.2595H31.9194V14.7242H29.2446Z" fill="white"/>
<path d="M14.741 22.5995V14.7988H12.7665V17.8396H10.0864V14.7988H8.1145V22.5995H10.0864V19.3823H12.7665V22.5995H14.741Z" fill="white"/>
<path d="M16.0757 14.7988V22.5995H18.0502V20.8092L19.2533 19.2112L20.9698 22.5995H23.1813L20.6039 17.5842L22.6679 14.7988H20.7408L18.0502 18.4635V14.7988H16.0757Z" fill="white"/>
</svg>
