<svg width="210" height="45" viewBox="0 0 210 45" fill="none" xmlns="http://www.w3.org/2000/svg">
<path d="M119.885 7.72874H114.246V5.52441H110.22V7.72874H104.585V11.0932H107.77C107.707 11.1389 107.647 11.1846 107.587 11.2339C106.177 12.4397 105.467 13.9655 105.467 15.8113C105.467 17.5445 106.199 18.9754 107.64 20.1074C108.965 21.1621 110.495 21.686 112.235 21.686C113.877 21.686 115.353 21.1621 116.661 20.1074C118.11 18.9754 118.834 17.5445 118.834 15.8113C118.834 13.9655 118.138 12.4397 116.739 11.2339C116.682 11.1846 116.622 11.1389 116.559 11.0932H119.878V7.72874H119.885ZM114.172 17.875C113.599 18.4761 112.91 18.775 112.101 18.775C111.293 18.775 110.554 18.4761 109.981 17.875C109.426 17.3089 109.152 16.6234 109.152 15.8113C109.152 14.9991 109.426 14.2679 109.981 13.6632C110.554 13.0796 111.261 12.7878 112.101 12.7878C112.942 12.7878 113.599 13.0796 114.172 13.6632C114.759 14.2679 115.058 14.9851 115.058 15.8113C115.058 16.6375 114.763 17.2878 114.172 17.875Z" fill="#003378"/>
<path d="M110.33 22.8418H106.543V29.5427C106.543 30.3337 106.705 30.8997 107.025 31.2372C107.296 31.5185 107.742 31.6626 108.368 31.6626H126.727V28.1294H110.33V22.8418Z" fill="#003378"/>
<path d="M126.544 7.64746H122.761V24.8356H126.544V17.2241H129.606V13.6663H126.544V7.64746Z" fill="#003378"/>
<path d="M154.363 7.64746H133.107V11.1737H150.58V15.4417H132.327V18.975H141.883V22.1953H133.107V25.7286H150.58V31.7755H154.363V22.1953H145.641V18.975H155.495V15.4417H154.363V7.64746Z" fill="#003378"/>
<path d="M181.582 19.6394V7.64746H177.799V9.45452H173.826V7.64746H170.092V10.5198H164.084V7.64746H160.322V17.5195C160.322 18.3105 160.473 18.873 160.776 19.214C161.064 19.4988 161.514 19.6429 162.126 19.6429H169.249C168.735 19.9312 168.25 20.2828 167.79 20.7117C166.197 22.1566 165.402 23.9883 165.402 26.1891C165.402 28.3899 166.197 30.2321 167.79 31.7017C169.277 33.0763 171.038 33.7654 173.077 33.7654C175.116 33.7654 176.864 33.0798 178.368 31.7017C179.992 30.2321 180.808 28.3934 180.808 26.1891C180.808 23.9848 179.992 22.1566 178.368 20.7117C176.994 19.4671 175.419 18.7921 173.65 18.6691C173.763 18.3597 173.822 17.9835 173.822 17.5195V17.4632H177.795V19.6429H181.578L181.582 19.6394ZM164.084 16.1941V13.6557H170.092V16.1941H164.084ZM175.763 23.4188C176.551 24.1746 176.944 25.0993 176.944 26.1891C176.944 27.279 176.551 28.2036 175.763 28.963C175.011 29.6977 174.125 30.0669 173.105 30.0669C172.086 30.0669 171.228 29.6977 170.479 28.963C169.688 28.2071 169.294 27.2825 169.294 26.1891C169.294 25.0957 169.688 24.1746 170.479 23.4188C171.228 22.7016 172.103 22.3465 173.105 22.3465C174.107 22.3465 175.011 22.7051 175.763 23.4188ZM173.826 14.4503V12.4674H177.799V14.4503H173.826Z" fill="#003378"/>
<path d="M200.264 24.3996H204.669V26.2946H208.48V7.64746H204.697V21.2355H200.264V24.3996Z" fill="#003378"/>
<path d="M197.954 16.6082C198.288 16.4183 198.615 16.1968 198.932 15.9402C200.338 14.8433 201.044 13.4511 201.044 11.7706C201.044 9.97056 200.362 8.49047 199.009 7.31975C197.757 6.21934 196.298 5.6709 194.625 5.6709C192.951 5.6709 191.38 6.21934 190.111 7.31975C188.733 8.49047 188.047 9.97056 188.047 11.7706C188.047 13.4546 188.754 14.8433 190.164 15.9402C190.483 16.1933 190.814 16.4183 191.158 16.6082H186.665V19.934H194.024V25.095H197.676V19.934H202.423V16.6082H197.954ZM196.506 13.7745C195.943 14.3616 195.279 14.6499 194.498 14.6499C193.676 14.6499 192.994 14.3616 192.435 13.7745C191.897 13.2226 191.626 12.5546 191.626 11.7706C191.626 10.9866 191.897 10.2694 192.435 9.68228C192.99 9.11626 193.676 8.83149 194.498 8.83149C195.321 8.83149 195.947 9.11626 196.506 9.68228C197.079 10.2694 197.367 10.962 197.367 11.7706C197.367 12.5335 197.082 13.205 196.506 13.7745Z" fill="#003378"/>
<path d="M192.213 28.1298V22.0547H188.479V29.5466C188.479 30.3376 188.638 30.9036 188.965 31.2411C189.246 31.5224 189.703 31.6665 190.329 31.6665H208.663V28.1333H192.21L192.213 28.1298Z" fill="#003378"/>
<path d="M69.7093 11.1622H66.4045V14.5302H69.7093V19.6279H73.4675V7.62891H69.7093V11.1622Z" fill="#003378"/>
<path d="M89.323 14.9626C90.107 16.0982 91.6574 16.956 93.9847 17.5396C95.6723 17.972 97.634 18.2287 99.8735 18.3025V14.7411C97.4758 14.6638 95.5492 14.3227 94.0902 13.718C92.5293 13.0782 91.7206 12.2098 91.6679 11.1165H99.87V7.57617H78.7689V11.1165H86.9464C86.9112 12.245 86.1132 13.1344 84.5522 13.7743C83.1108 14.3614 81.1842 14.6919 78.7689 14.7657V18.306C80.9381 18.2111 82.8717 17.9544 84.5768 17.5431C86.9393 16.9595 88.5179 16.1017 89.3194 14.9661L89.323 14.9626Z" fill="#003378"/>
<path d="M77.7074 20.6514V24.1881H87.4317V31.8558H91.1865V24.1881H100.935V20.6514H77.7074Z" fill="#003378"/>
<path d="M65.8169 18.7244V15.8521C64.4458 15.5954 63.2646 15.2017 62.5228 14.4142C61.7423 13.5845 61.0497 12.2837 60.9864 10.9934H65.7079V7.70628H60.7649V5.51953H56.7289V7.70628H51.8457V10.9934H56.3457C56.2965 12.5333 55.625 13.806 54.943 14.4142C54.159 15.1173 53.0867 15.5954 51.7332 15.8521V19.6596C53.0515 19.5787 54.3488 19.1885 55.632 18.4853C57.0242 17.7259 58.0649 16.5552 58.761 15.3634C59.4184 16.5517 60.4098 17.7119 61.7247 18.4572C62.0587 18.647 62.3927 18.8123 62.7372 18.9564C59.5098 19.8564 57.1508 22.7639 57.1508 26.2128C57.1508 30.3824 60.6032 33.7574 64.8572 33.7574C69.1111 33.7574 72.56 30.3824 72.56 26.2128C72.56 22.3631 69.6209 19.1849 65.8134 18.7244H65.8169ZM67.5045 28.9726C66.7521 29.7038 65.8626 30.0765 64.8466 30.0765C63.8306 30.0765 62.9692 29.7073 62.2169 28.9726C61.4259 28.2132 61.0321 27.2921 61.0321 26.1987C61.0321 25.1053 61.4259 24.1842 62.2169 23.4319C62.9692 22.7147 63.8446 22.3526 64.8466 22.3526C65.8486 22.3526 66.7556 22.7112 67.5045 23.4319C68.292 24.1842 68.6822 25.1088 68.6822 26.1987C68.6822 27.2886 68.292 28.2132 67.5045 28.9726Z" fill="#003378"/>
<path d="M56.2686 43.7456C56.0154 43.8792 55.4635 44.0057 54.7603 44.0057C52.9041 44.0057 51.7791 42.8456 51.7791 41.0666C51.7791 39.1436 53.115 37.9834 54.8975 37.9834C55.6006 37.9834 56.1033 38.1311 56.3178 38.2436L56.0857 39.0908C55.808 38.9713 55.4283 38.8658 54.9432 38.8658C53.7549 38.8658 52.897 39.6112 52.897 41.0139C52.897 42.2971 53.6494 43.1198 54.9326 43.1198C55.365 43.1198 55.815 43.0319 56.0928 42.9018L56.265 43.7421L56.2686 43.7456Z" fill="#003378"/>
<path d="M58.1951 38.0781V40.416H60.6666V38.0781H61.7319V43.9177H60.6666V41.3442H58.1951V43.9177H57.1299V38.0781H58.1951Z" fill="#003378"/>
<path d="M66.1724 41.3295H63.9716V43.0452H66.4326V43.9206H62.9028V38.0811H66.3025V38.9565H63.9716V40.4647H66.1724V41.3295Z" fill="#003378"/>
<path d="M72.5041 40.9401C72.5041 42.8983 71.3193 44.0163 69.7056 44.0163C68.0919 44.0163 67.0197 42.7612 67.0197 41.042C67.0197 39.3229 68.1447 37.9834 69.7935 37.9834C71.4424 37.9834 72.5041 39.2736 72.5041 40.9401ZM68.1447 41.028C68.1447 42.2163 68.7423 43.1585 69.7654 43.1585C70.7885 43.1585 71.3791 42.2057 71.3791 40.9823C71.3791 39.8854 70.8342 38.8412 69.7654 38.8412C68.6966 38.8412 68.1447 39.8221 68.1447 41.0245V41.028Z" fill="#003378"/>
<path d="M73.376 43.9206V38.0811H74.5889L76.0971 40.5842C76.4873 41.2346 76.8248 41.9131 77.0956 42.5424H77.1131C77.0428 41.7655 77.0182 41.0096 77.0182 40.1166V38.0811H78.0061V43.9206H76.9057L75.3799 41.3577C75.0072 40.7143 74.617 39.9971 74.3322 39.3361L74.3041 39.3467C74.3463 40.099 74.3568 40.8725 74.3568 41.8323V43.9206H73.376Z" fill="#003378"/>
<path d="M83.8668 43.6497C83.4942 43.7903 82.7664 43.9802 81.9859 43.9802C80.998 43.9802 80.2527 43.727 79.6972 43.1997C79.1769 42.7075 78.8746 41.934 78.8816 41.0516C78.8816 39.2059 80.2 38.0176 82.1301 38.0176C82.8508 38.0176 83.4133 38.1652 83.6805 38.2953L83.4484 39.1567C83.1285 39.016 82.7383 38.9035 82.123 38.9035C80.875 38.9035 79.9996 39.6418 79.9996 41.0024C79.9996 42.3629 80.8152 43.1188 82.0281 43.1188C82.4078 43.1188 82.6961 43.0661 82.8332 42.9958V41.5403H81.8031V40.7H83.8668V43.6567V43.6497Z" fill="#003378"/>
<path d="M86.0709 38.0777H87.1361V41.8641C87.1361 43.4743 86.3556 44.0122 85.1955 44.0122C84.9002 44.0122 84.5275 43.963 84.3025 43.8751L84.4326 43.0173C84.6048 43.0665 84.8404 43.1192 85.09 43.1192C85.6982 43.1192 86.0709 42.8415 86.0709 41.829V38.0742V38.0777Z" fill="#003378"/>
<path d="M89.3193 38.0781V41.4848C89.3193 42.6274 89.7974 43.1583 90.5146 43.1583C91.2881 43.1583 91.7451 42.6309 91.7451 41.4848V38.0781H92.8103V41.4145C92.8103 43.218 91.8822 44.0126 90.4794 44.0126C89.0767 44.0126 88.254 43.2602 88.254 41.4215V38.0781H89.3193Z" fill="#003378"/>
<path d="M96.8006 38.0781V40.416H99.2721V38.0781H100.337V43.9177H99.2721V41.3442H96.8006V43.9177H95.7354V38.0781H96.8006Z" fill="#003378"/>
<path d="M102.682 42.2647L102.18 43.9206H101.079L102.95 38.0811H104.31L106.209 43.9206H105.066L104.539 42.2647H102.682ZM104.352 41.4596L103.892 40.0182C103.779 39.6631 103.684 39.2658 103.597 38.9248H103.579C103.491 39.2623 103.407 39.6701 103.301 40.0182L102.851 41.4596H104.352Z" fill="#003378"/>
<path d="M106.975 43.9206V38.0811H108.188L109.696 40.5842C110.087 41.2346 110.424 41.9131 110.695 42.5424H110.712C110.642 41.7655 110.617 41.0096 110.617 40.1166V38.0811H111.605V43.9206H110.505L108.979 41.3577C108.606 40.7143 108.216 39.9971 107.931 39.3361L107.903 39.3467C107.946 40.099 107.956 40.8725 107.956 41.8323V43.9206H106.975Z" fill="#003378"/>
<path d="M112.787 38.0781H113.845V40.7641H113.873C114.01 40.5391 114.158 40.3317 114.298 40.1313L115.824 38.0781H117.143L115.132 40.5672L117.273 43.9212H116.025L114.369 41.2422L113.848 41.868V43.9212H112.79V38.0816L112.787 38.0781Z" fill="#003378"/>
<path d="M122.739 40.9401C122.739 42.8983 121.551 44.0163 119.941 44.0163C118.331 44.0163 117.255 42.7612 117.255 41.042C117.255 39.3229 118.38 37.9834 120.029 37.9834C121.678 37.9834 122.739 39.2736 122.739 40.9401ZM118.38 41.028C118.38 42.2163 118.978 43.1585 120.001 43.1585C121.024 43.1585 121.614 42.2057 121.614 40.9823C121.614 39.8854 121.069 38.8412 120.001 38.8412C118.932 38.8412 118.38 39.8221 118.38 41.0245V41.028Z" fill="#003378"/>
<path d="M128.794 40.9401C128.794 42.8983 127.605 44.0163 125.995 44.0163C124.385 44.0163 123.309 42.7612 123.309 41.042C123.309 39.3229 124.434 37.9834 126.083 37.9834C127.732 37.9834 128.794 39.2736 128.794 40.9401ZM124.434 41.028C124.434 42.2163 125.032 43.1585 126.055 43.1585C127.078 43.1585 127.665 42.2057 127.665 40.9823C127.665 39.8854 127.12 38.8412 126.055 38.8412C124.99 38.8412 124.434 39.8221 124.434 41.0245V41.028Z" fill="#003378"/>
<path d="M129.665 38.0781H130.724V40.7641H130.752C130.889 40.5391 131.037 40.3317 131.177 40.1313L132.703 38.0781H134.021L132.01 40.5672L134.151 43.9212H132.903L131.247 41.2422L130.727 41.868V43.9212H129.669V38.0816L129.665 38.0781Z" fill="#003378"/>
<path d="M141.088 43.6497C140.715 43.7903 139.987 43.9802 139.207 43.9802C138.219 43.9802 137.474 43.727 136.918 43.1997C136.398 42.7075 136.095 41.934 136.102 41.0516C136.102 39.2059 137.421 38.0176 139.351 38.0176C140.072 38.0176 140.634 38.1652 140.901 38.2953L140.669 39.1567C140.349 39.016 139.959 38.9035 139.344 38.9035C138.096 38.9035 137.22 39.6418 137.22 41.0024C137.22 42.3629 138.036 43.1188 139.249 43.1188C139.629 43.1188 139.917 43.0661 140.054 42.9958V41.5403H139.024V40.7H141.088V43.6567V43.6497Z" fill="#003378"/>
<path d="M145.401 41.3295H143.2V43.0452H145.661V43.9206H142.132V38.0811H145.528V38.9565H143.197V40.4647H145.398V41.3295H145.401Z" fill="#003378"/>
<path d="M146.548 43.9206V38.0811H147.761L149.269 40.5842C149.659 41.2346 149.996 41.9131 150.267 42.5424H150.285C150.214 41.7655 150.19 41.0096 150.19 40.1166V38.0811H151.178V43.9206H150.077L148.552 41.3577C148.179 40.7143 147.789 39.9971 147.504 39.3361L147.476 39.3467C147.518 40.099 147.528 40.8725 147.528 41.8323V43.9206H146.548Z" fill="#003378"/>
<path d="M155.629 41.3295H153.428V43.0452H155.889V43.9206H152.359V38.0811H155.755V38.9565H153.424V40.4647H155.625V41.3295H155.629Z" fill="#003378"/>
<path d="M156.775 38.1586C157.172 38.0883 157.773 38.0391 158.388 38.0391C159.229 38.0391 159.802 38.1762 160.192 38.5066C160.512 38.7738 160.695 39.1817 160.695 39.6739C160.695 40.4262 160.181 40.9395 159.636 41.1399V41.1645C160.051 41.3227 160.304 41.7305 160.452 42.293C160.635 43.0208 160.79 43.6958 160.913 43.9208H159.812C159.724 43.7485 159.587 43.2704 159.422 42.5426C159.257 41.7797 158.979 41.5372 158.374 41.5196H157.836V43.9208H156.778V38.1586H156.775ZM157.833 40.7391H158.466C159.183 40.7391 159.636 40.3594 159.636 39.7758C159.636 39.136 159.186 38.8406 158.494 38.8406C158.156 38.8406 157.938 38.8688 157.836 38.8934V40.7391H157.833Z" fill="#003378"/>
<path d="M162.892 42.2647L162.389 43.9206H161.289L163.159 38.0811H164.52L166.418 43.9206H165.275L164.748 42.2647H162.892ZM164.562 41.4596L164.101 40.0182C163.989 39.6631 163.894 39.2658 163.806 38.9248H163.788C163.7 39.2623 163.616 39.6701 163.511 40.0182L163.061 41.4596H164.562Z" fill="#003378"/>
<path d="M167.184 38.0781H168.25V43.0282H170.651V43.9212H167.184V38.0816V38.0781Z" fill="#003378"/>
<path d="M174.226 38.0781V40.416H176.698V38.0781H177.763V43.9177H176.698V41.3442H174.226V43.9177H173.161V38.0781H174.226Z" fill="#003378"/>
<path d="M184.12 40.9401C184.12 42.8983 182.935 44.0163 181.321 44.0163C179.708 44.0163 178.635 42.7612 178.635 41.042C178.635 39.3229 179.76 37.9834 181.409 37.9834C183.058 37.9834 184.12 39.2736 184.12 40.9401ZM179.76 41.028C179.76 42.2163 180.358 43.1585 181.381 43.1585C182.404 43.1585 182.995 42.2057 182.995 40.9823C182.995 39.8854 182.45 38.8412 181.381 38.8412C180.312 38.8412 179.76 39.8221 179.76 41.0245V41.028Z" fill="#003378"/>
<path d="M184.963 42.7612C185.311 42.9616 185.831 43.1339 186.376 43.1339C187.062 43.1339 187.442 42.8139 187.442 42.3358C187.442 41.8928 187.146 41.6362 186.401 41.3655C185.438 41.0174 184.822 40.5041 184.822 39.6639C184.822 38.7111 185.621 37.9834 186.883 37.9834C187.515 37.9834 187.983 38.124 188.289 38.2787L188.029 39.1401C187.821 39.024 187.414 38.8623 186.869 38.8623C186.194 38.8623 185.898 39.2244 185.898 39.5619C185.898 40.0119 186.236 40.2194 187.016 40.5252C188.029 40.9049 188.524 41.4182 188.524 42.2585C188.524 43.1936 187.814 44.0093 186.306 44.0093C185.691 44.0093 185.051 43.837 184.728 43.6436L184.96 42.7612H184.963Z" fill="#003378"/>
<path d="M189.442 38.1586C189.826 38.0883 190.353 38.0391 191.074 38.0391C191.854 38.0391 192.424 38.2008 192.796 38.5172C193.141 38.802 193.369 39.2625 193.369 39.8074C193.369 40.3524 193.197 40.82 192.867 41.1329C192.441 41.5583 191.777 41.7586 191.021 41.7586C190.821 41.7586 190.641 41.7516 190.501 41.7235V43.9243H189.442V38.1621V38.1586ZM190.497 40.8762C190.627 40.9114 190.799 40.9219 191.017 40.9219C191.815 40.9219 192.301 40.5317 192.301 39.8461C192.301 39.1957 191.851 38.8477 191.116 38.8477C190.821 38.8477 190.613 38.8758 190.501 38.9004V40.8762H190.497Z" fill="#003378"/>
<path d="M195.303 38.0781V43.9177H194.238V38.0781H195.303Z" fill="#003378"/>
<path d="M197.599 38.9711H195.936V38.0781H200.348V38.9711H198.667V43.9177H197.599V38.9711Z" fill="#003378"/>
<path d="M201.522 42.2647L201.019 43.9206H199.919L201.789 38.0811H203.15L205.048 43.9206H203.906L203.378 42.2647H201.522ZM203.192 41.4596L202.731 40.0182C202.619 39.6631 202.524 39.2658 202.436 38.9248H202.419C202.331 39.2623 202.246 39.6701 202.141 40.0182L201.691 41.4596H203.192Z" fill="#003378"/>
<path d="M205.815 38.0781H206.88V43.0282H209.281V43.9212H205.815V38.0816V38.0781Z" fill="#003378"/>
<path d="M34.1904 29.7211C34.1904 29.7211 31.1036 38.5173 21.6535 38.7423C15.2444 38.8935 9.70371 34.8294 7.54509 28.793C4.89427 20.8792 8.99003 12.1392 17.2765 8.01534C20.3175 6.55985 23.5414 5.82156 26.8637 5.82156C31.5255 5.82156 36.1626 7.28408 40.269 10.0509L40.3604 10.1142C41.3307 10.8033 41.5768 10.9509 41.9565 10.9509C41.9565 10.9509 42.3959 10.9439 42.6104 10.7611C42.8284 10.5747 42.8635 10.3849 42.8635 10.3849C43.1307 9.79427 42.6877 9.36535 42.4241 9.10871C38.8732 5.68093 33.0759 3.40278 27.2785 3.1602C27.0219 3.15316 26.7617 3.14965 26.5086 3.14965C20.5706 3.14965 15.6206 4.85123 10.4983 9.00676C15.9229 4.00747 20.9714 2.32698 27.6582 1.87346C29.1313 1.77502 31.2618 1.9051 32.2954 1.9051C33.6349 1.9051 33.5118 0.882041 32.4888 0.628912C30.404 0.105077 24.5645 -0.858216 16.7351 1.63088C9.36269 3.9688 3.82551 9.1052 1.3329 15.9045C-1.00502 22.2784 -0.252669 28.9512 3.47394 34.7169C7.5029 40.574 13.7221 43.9771 21.1296 44.1353C25.1481 44.2232 28.1047 43.2599 31.3391 41.5232C36.7533 38.447 39.724 33.0821 39.9385 27.6925H34.7247C34.6158 28.3922 34.447 29.025 34.1904 29.7141V29.7211Z" fill="url(#paint0_linear_122_2)"/>
<path d="M34.5876 15.7256C32.7489 14.1998 30.1121 12.6634 26.5402 12.4279C24.5117 12.2943 22.9437 12.4455 21.6253 13.0466C21.6253 13.0466 20.3596 13.5986 20.4897 14.147C20.6479 14.815 21.7026 14.8396 21.7026 14.8396C22.1597 14.7904 22.6237 14.7658 23.0843 14.7658C25.7949 14.7658 28.3297 15.6025 30.4215 17.1846C31.0086 17.624 31.5325 18.053 32.0106 18.5838H34.5876V15.7291V15.7256Z" fill="url(#paint1_linear_122_2)"/>
<path fill-rule="evenodd" clip-rule="evenodd" d="M39.0528 19.6635V16.0986H35.6742V19.6635H32.0988V23.0491H35.6742V26.614H39.0528V23.0491H42.6247V19.6635H39.0528Z" fill="#003378"/>
<path d="M19.6846 30.1787V19.7617H17.0479V23.8223H13.4689V19.7617H10.8357V30.1787H13.4689V25.8825H17.0479V30.1787H19.6846Z" fill="#003378"/>
<path d="M21.4673 19.7617V30.1787H24.104V27.788L25.7107 25.654L28.0029 30.1787H30.9561L27.5142 23.4813L30.2705 19.7617H27.6971L24.104 24.6555V19.7617H21.4673Z" fill="#003378"/>
<defs>
<linearGradient id="paint0_linear_122_2" x1="-11.7595" y1="-12.5302" x2="78.7198" y2="77.9526" gradientUnits="userSpaceOnUse">
<stop stop-color="#24BBEE"/>
<stop offset="0.06" stop-color="#21B7E0"/>
<stop offset="0.45" stop-color="#0FA387"/>
<stop offset="0.72" stop-color="#04964F"/>
<stop offset="0.85" stop-color="#00913A"/>
</linearGradient>
<linearGradient id="paint1_linear_122_2" x1="-5.8778" y1="-18.4116" x2="84.6015" y2="72.0712" gradientUnits="userSpaceOnUse">
<stop stop-color="#24BBEE"/>
<stop offset="0.06" stop-color="#21B7E0"/>
<stop offset="0.45" stop-color="#0FA387"/>
<stop offset="0.72" stop-color="#04964F"/>
<stop offset="0.85" stop-color="#00913A"/>
</linearGradient>
</defs>
</svg>
