<svg width="45" height="45" viewBox="0 0 45 45" fill="none" xmlns="http://www.w3.org/2000/svg">
<rect x="0.5" y="0.5" width="44" height="44" rx="9.5" stroke="#FF9724"/>
<g clip-path="url(#clip0_29_58)">
<path d="M17.75 36.9998C20.3783 36.9998 22.5 34.9154 22.5 32.3332V27.6665H17.75C15.1217 27.6665 13 29.7509 13 32.3332C13 34.9154 15.1217 36.9998 17.75 36.9998Z" fill="#0ACF83"/>
<path d="M13 23.0002C13 20.4179 15.1217 18.3335 17.75 18.3335H22.5V27.6668H17.75C15.1217 27.6668 13 25.5824 13 23.0002Z" fill="#A259FF"/>
<path d="M13 13.6667C13 11.0844 15.1217 9 17.75 9H22.5V18.3333H17.75C15.1217 18.3333 13 16.2489 13 13.6667Z" fill="#F24E1E"/>
<path d="M22.5 9H27.25C29.8783 9 32 11.0844 32 13.6667C32 16.2489 29.8783 18.3333 27.25 18.3333H22.5V9Z" fill="#FF7262"/>
<path d="M32 23.0002C32 25.5824 29.8783 27.6668 27.25 27.6668C24.6217 27.6668 22.5 25.5824 22.5 23.0002C22.5 20.4179 24.6217 18.3335 27.25 18.3335C29.8783 18.3335 32 20.4179 32 23.0002Z" fill="#1ABCFE"/>
</g>
<defs>
<clipPath id="clip0_29_58">
<rect width="19" height="28" fill="white" transform="translate(13 9)"/>
</clipPath>
</defs>
</svg>
