<svg width="45" height="45" viewBox="0 0 45 45" fill="none" xmlns="http://www.w3.org/2000/svg">
<rect x="0.5" y="0.5" width="44" height="44" rx="9.5" stroke="#FF9724"/>
<path d="M9.28906 34L16.6133 12.7891H22.2676L29.6064 34H24.875L19.5283 17.5791H19.3525L13.9912 34H9.28906ZM25.0801 25.665V29.1074H13.7568V25.665H25.0801ZM31.9941 18.0918H36.3301V34H31.9941V18.0918ZM34.1621 15.9971C33.7324 15.9971 33.3369 15.8994 32.9756 15.7041C32.6143 15.5088 32.3262 15.2402 32.1113 14.8984C31.8965 14.5566 31.7891 14.1904 31.7891 13.7998C31.7891 13.3994 31.8965 13.0332 32.1113 12.7012C32.3262 12.3594 32.6143 12.0908 32.9756 11.8955C33.3369 11.7002 33.7324 11.6025 34.1621 11.6025C34.5918 11.6025 34.9873 11.7002 35.3486 11.8955C35.71 12.0908 35.9932 12.3594 36.1982 12.7012C36.4131 13.0332 36.5205 13.3994 36.5205 13.7998C36.5205 14.1904 36.4131 14.5566 36.1982 14.8984C35.9932 15.2402 35.71 15.5088 35.3486 15.7041C34.9873 15.8994 34.5918 15.9971 34.1621 15.9971Z" fill="#FF9724"/>
</svg>
