<svg width="45" height="45" viewBox="0 0 45 45" fill="none" xmlns="http://www.w3.org/2000/svg">
<rect x="0.5" y="0.5" width="44" height="44" rx="9.5" stroke="#FF9724"/>
<path d="M8.31348 9.78906H16.6045C18.1865 9.78906 19.5488 10.0918 20.6914 10.6973C21.8438 11.293 22.7178 12.1328 23.3135 13.2168C23.9092 14.3008 24.207 15.5459 24.207 16.9521C24.207 18.3682 23.8994 19.6133 23.2842 20.6875C22.6787 21.752 21.7949 22.5869 20.6328 23.1924C19.4805 23.7881 18.1035 24.0859 16.502 24.0859H11.1699V20.541H15.8135C16.6631 20.541 17.376 20.3945 17.9521 20.1016C18.5381 19.7988 18.9727 19.3789 19.2559 18.8418C19.5391 18.3047 19.6807 17.6748 19.6807 16.9521C19.6807 16.2295 19.5391 15.6045 19.2559 15.0771C18.9727 14.54 18.5381 14.1299 17.9521 13.8467C17.376 13.5537 16.6582 13.4072 15.7988 13.4072H12.708V31H8.31348V9.78906ZM35.9844 19.8232C35.8867 19.2373 35.6084 18.7832 35.1494 18.4609C34.6904 18.1387 34.0996 17.9775 33.377 17.9775C32.9082 17.9775 32.4883 18.0459 32.1172 18.1826C31.7461 18.3096 31.4482 18.5 31.2236 18.7539C31.0088 18.998 30.9014 19.2764 30.9014 19.5889C30.8916 19.96 31.0479 20.2822 31.3701 20.5557C31.7021 20.8291 32.2295 21.0391 32.9521 21.1855L35.8232 21.7715C37.3662 22.084 38.5137 22.5967 39.2656 23.3096C40.0273 24.0127 40.4082 24.9355 40.4082 26.0781C40.4082 27.1133 40.1104 28.0264 39.5146 28.8174C38.9287 29.5986 38.1035 30.209 37.0391 30.6484C35.9844 31.0879 34.7539 31.3076 33.3477 31.3076C31.9316 31.3076 30.7061 31.1074 29.6709 30.707C28.6455 30.2969 27.835 29.7207 27.2393 28.9785C26.6436 28.2266 26.2871 27.333 26.1699 26.2979H30.5205C30.6475 26.9033 30.9502 27.3672 31.4287 27.6895C31.917 28.002 32.5615 28.1582 33.3623 28.1582C33.8799 28.1582 34.334 28.0947 34.7246 27.9678C35.125 27.8408 35.4326 27.6553 35.6475 27.4111C35.8721 27.1572 35.9844 26.8643 35.9844 26.5322C35.9844 26.1025 35.8086 25.7559 35.457 25.4922C35.1152 25.2285 34.5732 25.0234 33.8311 24.877L31.1943 24.3496C29.6709 24.0469 28.5186 23.5146 27.7373 22.7529C26.9658 21.9912 26.585 21.0244 26.5947 19.8525C26.5947 18.8369 26.8682 17.958 27.415 17.2158C27.9619 16.4639 28.7383 15.8877 29.7441 15.4873C30.7598 15.0869 31.9512 14.8867 33.3184 14.8867C34.6465 14.8867 35.8037 15.0869 36.79 15.4873C37.7764 15.8877 38.5479 16.459 39.1045 17.2012C39.6611 17.9434 39.9736 18.8174 40.042 19.8232H35.9844Z" fill="#FF9724"/>
</svg>
